<svg width="114" height="30" viewBox="0 0 114 30" fill="none" xmlns="http://www.w3.org/2000/svg">
<path d="M0.0379747 0.759495C0.531646 0.683545 1.02532 0.531647 1.51899 0.531647C10.9367 0.531647 20.3544 0.531647 29.7722 0.531647C30.1519 0.531647 30.4937 0.607596 31.481 0.72152C25.6709 8.8481 19.519 16.2911 13.5949 24.3797C46.9747 24.3797 80.0506 24.3797 113.316 24.3797C113.43 26.3924 113.506 28.2152 113.582 30C75.7215 30 37.8987 30 0.0379747 30C0.0379747 29.6203 0.0379747 29.2405 0.0379747 28.8608C4.25316 23.4304 8.43038 18 12.6456 12.5696C14.2785 10.443 15.8734 8.31646 17.7722 5.8481C16.5949 5.77215 15.9494 5.6962 15.2658 5.6962C10.9747 5.6962 6.68354 5.6962 2.3924 5.65823C1.59494 5.65823 0.797468 5.43038 0 5.31646C0.0379747 3.79747 0.0379747 2.27848 0.0379747 0.759495Z" fill="#00B341"/>
<path d="M113.961 12.5316C113.43 14.0506 113.088 15.7215 112.29 17.1266C110.468 20.3544 107.354 21.9494 103.898 22.7848C98.4675 24.1139 93.4169 23.1646 89.2397 19.3291C84.3789 14.8861 84.8726 7.51899 90.1131 3.4557C92.2777 1.78481 94.6701 0.797468 97.3663 0.455696C97.8599 0.379747 98.2777 0.151899 98.7713 0C99.4169 0 100.024 0 100.67 0C101.202 0.151899 101.733 0.303797 102.265 0.493671C104.43 1.29114 106.67 1.86076 108.683 2.96203C111.835 4.63291 113.202 7.67089 113.961 11.0127C113.961 11.5063 113.961 12.038 113.961 12.5316ZM106.024 11.8481C105.911 10.9747 105.911 10.1772 105.683 9.4557C104.885 6.83544 103.48 4.70886 100.556 4.21519C98.3156 3.83544 96.6068 4.93671 95.3916 6.68354C93.7587 9.03798 93.3409 11.6582 94.1764 14.4304C95.0878 17.3544 97.5182 19.481 99.9106 19.443C102.265 19.4051 104.695 17.3165 105.531 14.5063C105.797 13.5949 105.873 12.6456 106.024 11.8481Z" fill="#00B341"/>
<path d="M40.7849 4.74684C40.5951 5.16457 40.5191 5.27849 40.4811 5.39241C39.7596 9.56963 40.1014 9.98735 44.2406 9.98735C47.1647 9.98735 50.0508 10.0633 52.9748 9.94938C54.6457 9.87343 54.5698 10.8608 54.5698 12C54.6077 13.2152 54.4938 14.0506 52.8989 13.9747C49.4052 13.8608 45.9495 14.0127 42.4558 13.8987C40.9368 13.8608 40.2913 14.2405 40.3292 15.8734C40.3672 18.8734 40.2913 18.9114 43.3292 18.9114C47.8862 18.9114 52.4432 18.9114 57.152 18.9114C57.152 20.2405 57.152 21.4557 57.152 22.8608C56.6204 22.8987 56.0887 23.0127 55.5191 23.0127C48.5698 23.0127 41.5824 22.9747 34.633 23.0506C33.0381 23.0886 32.7343 22.481 32.7343 21.076C32.8103 14.9241 32.8103 8.81013 32.7343 2.65824C32.6963 1.13925 33.228 0.721527 34.671 0.721527C41.1267 0.797476 47.5824 0.759502 54.0381 0.759502C57.6077 0.759502 57.7596 0.949375 56.9622 4.74684C51.6457 4.74684 46.2153 4.74684 40.7849 4.74684Z" fill="#00B341"/>
<path d="M75.8358 4.78482C75.8358 7.97469 75.8738 10.9367 75.8358 13.8987C75.7978 16.4051 75.7219 18.9494 75.6839 21.4557C75.6839 22.557 75.3042 23.0886 74.1269 23.0127C72.6839 22.9367 71.2029 22.8987 69.7599 23.0127C68.3548 23.1266 68.051 22.519 68.089 21.2279C68.1269 16.3671 68.051 11.5063 68.1269 6.64558C68.1649 5.12659 67.6712 4.63292 66.1902 4.74684C64.2535 4.86077 62.2788 4.70887 60.3042 4.78482C58.8611 4.86077 58.7852 3.98735 58.8231 2.96203C58.8611 1.89874 58.5953 0.721527 60.3042 0.721527C68.089 0.759502 75.8358 0.759502 83.6206 0.721527C85.4434 0.721527 84.9118 2.01267 84.9877 3.00001C85.0637 4.02532 84.9877 4.86077 83.5447 4.78482C81.1143 4.74684 78.6459 4.78482 75.8358 4.78482Z" fill="#00B341"/>
</svg>
