<svg xmlns="http://www.w3.org/2000/svg">
  <symbol viewBox="0 0 45 30" id="bicycle">
    <path d="M7.7354 29.1161C8.09417 29.1793 8.43607 28.9408 8.49971 28.5825C8.56351 28.2241 8.32454 27.8818 7.96612 27.8182C4.11419 27.1334 1.31837 23.7918 1.31837 19.8726C1.31837 15.4225 4.9387 11.8022 9.38881 11.8022C10.4502 11.8022 11.4643 12.0085 12.3934 12.3826L11.9911 13.1879C11.1837 12.8724 10.3066 12.6974 9.38881 12.6974C5.43239 12.6974 2.21363 15.9161 2.21363 19.8726C2.21363 23.8291 5.43239 27.0478 9.38881 27.0478C13.1229 27.0478 16.1985 24.1803 16.5324 20.5318H17.4315C17.1382 24.1613 14.4455 27.1722 10.8115 27.8182C10.4531 27.8819 10.2141 28.2241 10.2779 28.5825C10.3347 28.902 10.6126 29.1264 10.9261 29.1264C10.9644 29.1264 11.0033 29.123 11.0422 29.1161C14.7349 28.4596 17.5914 25.7047 18.4839 22.2054C18.8954 22.5849 19.407 22.8571 19.9742 22.9774V24.3245H19.3967C19.0326 24.3245 18.7375 24.6195 18.7375 24.9837C18.7375 25.3478 19.0326 25.6429 19.3967 25.6429H21.87C22.2341 25.6429 22.5292 25.3478 22.5292 24.9837C22.5292 24.6195 22.2341 24.3245 21.87 24.3245H21.2926V22.9774C22.7275 22.673 23.8075 21.3968 23.8075 19.8725C23.8075 19.1622 23.5729 18.5057 23.1772 17.9763L30.9742 9.34035L31.7173 11.3301C28.4784 12.8124 26.2224 16.0839 26.2224 19.8725C26.2224 25.0495 30.4342 29.2614 35.6112 29.2614C40.7882 29.2614 45 25.0495 45 19.8725C45 14.6956 40.7882 10.4837 35.6112 10.4837C34.6879 10.4837 33.7955 10.6184 32.952 10.8679L30.6954 4.82528H34.4721C34.7326 5.45951 35.3563 5.90766 36.0833 5.90766C36.2243 5.90766 36.3391 6.02245 36.3391 6.16351C36.3391 6.30458 36.2243 6.41937 36.0833 6.41937H35.2809C34.3206 6.41937 33.5393 7.20072 33.5393 8.16093C33.5393 9.12114 34.3207 9.90241 35.2809 9.90241H36.0833C38.145 9.90241 39.8223 8.22509 39.8223 6.16343C39.8223 4.10176 38.145 2.42444 36.0833 2.42444C35.3563 2.42444 34.7326 2.8726 34.4721 3.50674H29.7456C29.2949 3.50674 28.9653 3.95902 29.1281 4.39655L29.7966 6.18681H16.3533L15.9336 5.06303C16.201 4.89709 16.4286 4.66611 16.589 4.3838C16.6946 4.19791 16.8931 4.08234 17.107 4.08234H19.91C20.6857 4.08234 21.2142 3.29544 20.922 2.57746L20.9219 2.57737C20.4716 1.47214 19.4093 0.757935 18.2157 0.757935H11.4626C10.562 0.757935 9.82932 1.49068 9.82932 2.39131C9.82932 4.02398 11.1576 5.35228 12.7904 5.35228H14.6343L15.178 6.80793L12.9842 11.1996C11.8762 10.7385 10.6618 10.4835 9.3889 10.4835C4.21184 10.4838 0 14.6957 0 19.8726C0 24.4319 3.25321 28.3193 7.7354 29.1161ZM35.6112 11.8022C40.0613 11.8022 43.6816 15.4225 43.6816 19.8726C43.6816 24.3227 40.0613 27.9431 35.6112 27.9431C31.1611 27.9431 27.5407 24.3227 27.5407 19.8726C27.5407 16.6489 29.441 13.8609 32.18 12.569L32.4943 13.4106C30.0948 14.5727 28.4361 17.0325 28.4361 19.8726C28.4361 23.8291 31.6548 27.0478 35.6113 27.0478C38.9352 27.0478 41.8022 24.7936 42.5837 21.5659C42.6694 21.2121 42.452 20.8558 42.0982 20.7701C41.7442 20.6841 41.3881 20.9018 41.3024 21.2556C40.6647 23.8897 38.3244 25.7294 35.6113 25.7294C32.3819 25.7294 29.7545 23.1019 29.7545 19.8725C29.7545 17.5976 31.059 15.623 32.9585 14.6536L34.3646 18.4186C33.955 18.7704 33.6946 19.2915 33.6946 19.8726C33.6946 20.9294 34.5544 21.7893 35.6113 21.7893C36.6682 21.7893 37.528 20.9295 37.528 19.8726C37.528 18.8157 36.6682 17.956 35.6113 17.956C35.6072 17.956 35.6033 17.9562 35.5993 17.9562L34.193 14.1903C34.6474 14.0768 35.1222 14.0156 35.6114 14.0156C38.3245 14.0156 40.6648 15.8554 41.3025 18.4895C41.3882 18.8432 41.7442 19.0606 42.0983 18.975C42.4521 18.8893 42.6695 18.5331 42.5838 18.1792C41.8023 14.9514 38.9351 12.6972 35.6114 12.6972C34.9602 12.6972 34.3297 12.7859 33.7296 12.9493L33.4147 12.1058C34.1131 11.9082 34.85 11.8022 35.6112 11.8022ZM35.6112 19.2744C35.9411 19.2744 36.2095 19.5429 36.2095 19.8727C36.2095 20.2026 35.9411 20.471 35.6112 20.471C35.2813 20.471 35.0129 20.2026 35.0129 19.8727C35.0129 19.5429 35.2813 19.2744 35.6112 19.2744ZM13.5721 12.9732C15.7238 14.2827 17.2175 16.5701 17.4322 19.2135H16.5324C16.3225 16.9202 15.0294 14.9363 13.1699 13.7783L13.5721 12.9732ZM11.1887 19.2134C11.0983 18.9676 10.9586 18.7455 10.7822 18.5586L12.5778 14.9639C14.0079 15.8962 15.0074 17.4351 15.2076 19.2134H11.1887ZM9.38881 19.2744C9.71867 19.2744 9.98709 19.5429 9.98709 19.8727C9.98709 20.2026 9.71867 20.471 9.38881 20.471C9.05887 20.471 8.79045 20.2026 8.79045 19.8727C8.79045 19.5429 9.05887 19.2744 9.38881 19.2744ZM9.38881 25.7294C6.15942 25.7294 3.532 23.102 3.532 19.8726C3.532 16.6431 6.15942 14.0157 9.38881 14.0157C10.095 14.0157 10.7724 14.1414 11.3999 14.3715L9.60309 17.9683C9.53269 17.9604 9.46124 17.956 9.38881 17.956C8.33201 17.956 7.47208 18.8157 7.47208 19.8726C7.47208 20.9295 8.33192 21.7893 9.38881 21.7893C10.2141 21.7893 10.9193 21.2649 11.1887 20.5318H15.2076C14.8788 23.4519 12.3953 25.7294 9.38881 25.7294ZM21.2926 21.6052V19.8726C21.2926 19.5085 20.9976 19.2134 20.6335 19.2134C20.2693 19.2134 19.9743 19.5085 19.9743 19.8726V21.6052C19.2759 21.3386 18.7777 20.6636 18.7777 19.8726C18.7777 18.8494 19.6102 18.017 20.6335 18.017C21.6567 18.017 22.4891 18.8495 22.4891 19.8726C22.4891 20.6636 21.9909 21.3386 21.2926 21.6052ZM36.0833 3.74308C37.4181 3.74308 38.504 4.82888 38.504 6.16369C38.504 7.4985 37.4181 8.5843 36.0833 8.5843H35.2809C35.0475 8.5843 34.8577 8.39446 34.8577 8.1612C34.8577 7.92785 35.0475 7.738 35.2809 7.738H36.0833C36.9513 7.738 37.6575 7.03179 37.6575 6.16378C37.6575 5.29576 36.9513 4.58956 36.0833 4.58956C35.8499 4.58956 35.6601 4.39971 35.6601 4.16636C35.6601 3.93292 35.8499 3.74308 36.0833 3.74308ZM30.2889 7.50544L30.4545 7.94876L22.1868 17.1062C21.7273 16.8471 21.1975 16.6986 20.6335 16.6986C20.5161 16.6986 20.4004 16.7055 20.2862 16.718L16.8458 7.50553H30.2889V7.50544ZM11.1476 2.39166C11.1476 2.2179 11.2888 2.07666 11.4625 2.07666H18.2157C18.7506 2.07666 19.2376 2.33813 19.5327 2.76432H17.1069C16.4198 2.76432 15.7821 3.13548 15.4427 3.73279C15.337 3.91877 15.1385 4.03435 14.9246 4.03435H12.7902C11.8846 4.03426 11.1476 3.29738 11.1476 2.39166ZM15.8084 8.4965L19.0337 17.133C18.836 17.2489 18.6518 17.3852 18.4842 17.5396C17.8586 15.1021 16.276 13.0443 14.1627 11.7912L15.8084 8.4965Z" fill="currentColor"/>
  </symbol>
  <symbol viewBox="0 0 39 48" id="blower">
    <path d="M38.8527 17.6178C37.5437 7.0079 27.8815 -0.53198 17.2716 0.777059C6.66171 2.0861 -0.878171 11.7483 0.430867 22.3582C1.518 31.1696 8.46019 38.1118 17.2716 39.1989V42.9043H11.7411C10.4321 42.9043 9.37094 43.9654 9.37094 45.2745V47.6447H29.9126V45.2745C29.9126 43.9654 28.8515 42.9043 27.5424 42.9043H22.012V39.1989C32.6218 37.8898 40.1617 28.2277 38.8527 17.6178ZM27.5424 44.4844C27.9787 44.4844 28.3325 44.8382 28.3325 45.2745V46.0645H10.9511V45.2745C10.9511 44.8382 11.3048 44.4844 11.7411 44.4844H27.5424ZM18.8517 42.9043V39.744H20.4318V42.9043H18.8517ZM19.6418 37.7689C9.82414 37.7689 1.86533 29.8101 1.86533 19.9924C1.87669 10.1794 9.82878 2.22732 19.6418 2.21596C29.4594 2.21596 37.4182 10.1748 37.4182 19.9924C37.4182 29.8101 29.4594 37.7689 19.6418 37.7689Z" fill="currentColor"/>
    <path d="M36.2335 21.5726V19.9925C36.2335 19.5562 35.8797 19.2024 35.4434 19.2024H26.206C30.1366 16.4538 31.0947 11.0393 28.3461 7.1087C26.7198 4.78315 24.06 3.39885 21.2223 3.40113H19.6421C19.2058 3.40113 18.8521 3.75488 18.8521 4.19119V13.4286C16.1034 9.49805 10.6889 8.5399 6.75836 11.2885C4.4328 12.9148 3.04851 15.5746 3.05078 18.4123V19.9925C3.05078 20.4288 3.40454 20.7825 3.84085 20.7825H13.0783C10.7609 22.4099 9.37851 25.0615 9.3713 27.8931C9.37693 32.6905 13.2646 36.5782 18.062 36.5838H19.6421C20.0785 36.5838 20.4322 36.2301 20.4322 35.7938V26.5563C23.1808 30.4869 28.5953 31.4451 32.5259 28.6964C34.8514 27.0703 36.2358 24.4104 36.2335 21.5726ZM20.4322 4.98125H21.2223C25.1493 4.98669 28.3284 8.1747 28.323 12.1017C28.3187 15.18 26.3342 17.9059 23.406 18.8556C22.991 17.4678 21.8498 16.4185 20.4322 16.1212V4.98125ZM4.63091 19.2024V18.4123C4.63812 14.4853 7.82751 11.3077 11.7546 11.3149C14.8307 11.3205 17.5544 13.3037 18.5044 16.2294C17.1172 16.6445 16.0683 17.7853 15.7708 19.2024H4.63091ZM18.8521 35.0037H18.062C14.135 34.9983 10.9559 31.8103 10.9613 27.8832C10.9656 24.805 12.9501 22.079 15.8783 21.1294C16.2933 22.5171 17.4345 23.5664 18.8521 23.8638V35.0037ZM19.6421 22.3627C18.3331 22.3627 17.2719 21.3015 17.2719 19.9925C17.2719 18.6834 18.3331 17.6223 19.6421 17.6223C20.9512 17.6223 22.0123 18.6834 22.0123 19.9925C22.0123 21.3015 20.9511 22.3627 19.6421 22.3627ZM27.5296 28.6701C24.4535 28.6644 21.7299 26.6813 20.7798 23.7556C22.1671 23.3405 23.216 22.1996 23.5135 20.7825H34.6534V21.5726C34.6461 25.4997 31.4567 28.6774 27.5296 28.6701Z" fill="currentColor"/>
  </symbol>
  <symbol id="camera" viewBox="0 0 47 35">
    <path d="M34.3461 5.79653L33.4478 0.856687C33.3831 0.499041 33.0717 0.239014 32.708 0.239014H14.656C14.2923 0.239014 13.9809 0.49904 13.9162 0.856907L13.0261 5.75257C12.9513 6.16079 13.2222 6.5527 13.6314 6.62696C14.042 6.70034 14.4319 6.43007 14.5055 6.0213L15.2841 1.74331H32.08L32.8665 6.06548C32.932 6.42864 33.2487 6.68315 33.6055 6.68315C33.6505 6.68315 33.6952 6.67897 33.7407 6.67092C34.1499 6.59677 34.421 6.20497 34.3461 5.79653Z" fill="currentColor"/>
    <path d="M43.2335 5.50409H4.1311C2.05464 5.50409 0.365234 7.18952 0.365234 9.26092V31.0817C0.365234 33.1532 2.05464 34.8386 4.1311 34.8386H43.2337C45.3103 34.8386 46.9996 33.1532 46.9996 31.0819V9.26092C46.9996 7.18952 45.3103 5.50409 43.2335 5.50409ZM45.495 31.0817C45.495 32.3238 44.4807 33.3342 43.2335 33.3342H4.1311C2.88397 33.3342 1.86953 32.3238 1.86953 31.0819V9.26092C1.86953 8.01874 2.88397 7.00839 4.1311 7.00839H43.2337C44.4808 7.00839 45.4953 8.01874 45.495 9.26092V31.0817Z" fill="currentColor"/>
    <path d="M23.6831 8.51276C17.0473 8.51276 11.6484 13.9116 11.6484 20.5475C11.6484 27.1833 17.0473 32.5822 23.6831 32.5822C30.319 32.5822 35.7179 27.1833 35.7179 20.5475C35.7179 13.9116 30.3189 8.51276 23.6831 8.51276ZM23.6831 31.0778C17.8766 31.0778 13.1528 26.354 13.1528 20.5475C13.1528 14.7409 17.8766 10.0172 23.6831 10.0172C29.4897 10.0172 34.2135 14.7409 34.2135 20.5475C34.2135 26.3539 29.4897 31.0778 23.6831 31.0778Z" fill="currentColor"/>
    <path d="M23.6823 11.5214C18.705 11.5214 14.6562 15.5705 14.6562 20.5474C14.6562 25.5242 18.705 29.5734 23.6823 29.5734C28.6596 29.5734 32.7083 25.5242 32.7083 20.5474C32.7083 15.5705 28.6594 11.5214 23.6823 11.5214ZM23.6823 28.0691C19.5349 28.0691 16.1605 24.695 16.1605 20.5474C16.1605 16.3997 19.5349 13.0257 23.6823 13.0257C27.8296 13.0257 31.204 16.3997 31.204 20.5474C31.2039 24.695 27.8295 28.0691 23.6823 28.0691Z" fill="currentColor"/>
    <path d="M23.6833 14.5302C20.3653 14.5302 17.666 17.2295 17.666 20.5475C17.666 20.9628 18.0024 21.2997 18.4182 21.2997C18.834 21.2997 19.1704 20.9628 19.1704 20.5475C19.1704 18.0589 21.1949 16.0344 23.6834 16.0344C24.0991 16.0344 24.4356 15.6976 24.4356 15.2822C24.4356 14.8669 24.099 14.5302 23.6833 14.5302Z" fill="currentColor"/>
    <path d="M10.8962 2.49542H5.63111C5.2154 2.49542 4.87891 2.83224 4.87891 3.24763V6.25633C4.87891 6.67171 5.21529 7.00853 5.63111 7.00853H10.8963C11.312 7.00853 11.6485 6.67171 11.6485 6.25633V3.24763C11.6484 2.83224 11.312 2.49542 10.8962 2.49542ZM10.1441 5.50413H6.3832V3.99983H10.144V5.50413H10.1441Z" fill="currentColor"/>
    <path d="M40.9814 7.76062C39.322 7.76062 37.9727 9.11033 37.9727 10.7693C37.9727 12.4283 39.322 13.778 40.9814 13.778C42.6407 13.778 43.9901 12.4283 43.9901 10.7693C43.9901 9.11033 42.6407 7.76062 40.9814 7.76062ZM40.9814 12.2736C40.1521 12.2736 39.4771 11.599 39.4771 10.7693C39.4771 9.93966 40.1521 9.26503 40.9814 9.26503C41.8106 9.26503 42.4857 9.93977 42.4857 10.7693C42.4857 11.5989 41.8106 12.2736 40.9814 12.2736Z" fill="currentColor"/>
  </symbol>
  <symbol id="display" viewBox="0 0 47 44">
    <path d="M43.6691 36.6221H3.68729C2.80396 36.621 1.95711 36.2697 1.3325 35.645C0.707897 35.0204 0.356527 34.1736 0.355469 33.2903V9.30116H1.6882V33.2903C1.6882 33.8205 1.89882 34.3289 2.27372 34.7038C2.64862 35.0787 3.1571 35.2894 3.68729 35.2894H43.6691C44.1993 35.2894 44.7078 35.0787 45.0827 34.7038C45.4576 34.3289 45.6682 33.8205 45.6682 33.2903V3.97025C45.6682 3.44006 45.4576 2.93158 45.0827 2.55668C44.7078 2.18177 44.1993 1.97116 43.6691 1.97116H3.68729C3.1571 1.97116 2.64862 2.18177 2.27372 2.55668C1.89882 2.93158 1.6882 3.44006 1.6882 3.97025V6.6357H0.355469V3.97025C0.356527 3.08692 0.707897 2.24007 1.3325 1.61546C1.95711 0.990856 2.80396 0.639486 3.68729 0.638428H43.6691C44.5525 0.639486 45.3993 0.990856 46.0239 1.61546C46.6485 2.24007 46.9999 3.08692 47.001 3.97025V33.2903C46.9999 34.1736 46.6485 35.0204 46.0239 35.645C45.3993 36.2697 44.5525 36.621 43.6691 36.6221Z" fill="currentColor"/>
    <path d="M33.6729 43.2858H13.682C13.5053 43.2858 13.3358 43.2155 13.2108 43.0906C13.0858 42.9656 13.0156 42.7961 13.0156 42.6194C13.0156 39.2876 16.5267 39.2876 17.6802 39.2876H29.6747C30.8282 39.2876 34.3393 39.2876 34.3393 42.6194C34.3393 42.7961 34.2691 42.9656 34.1441 43.0906C34.0191 43.2155 33.8496 43.2858 33.6729 43.2858ZM14.429 41.953H32.9259C32.6934 41.1327 31.8891 40.6203 29.6747 40.6203H17.6802C15.4658 40.6203 14.6615 41.1327 14.429 41.953Z" fill="currentColor"/>
    <path d="M29.0098 40.6203H18.348C18.1713 40.6203 18.0018 40.5501 17.8768 40.4251C17.7518 40.3001 17.6816 40.1306 17.6816 39.9539V35.9557C17.6816 35.779 17.7518 35.6095 17.8768 35.4845C18.0018 35.3596 18.1713 35.2894 18.348 35.2894H29.0098C29.1866 35.2894 29.3561 35.3596 29.481 35.4845C29.606 35.6095 29.6762 35.779 29.6762 35.9557V39.9539C29.6762 40.1306 29.606 40.3001 29.481 40.4251C29.3561 40.5501 29.1866 40.6203 29.0098 40.6203ZM19.0144 39.2876H28.3435V36.6221H19.0144V39.2876Z" fill="currentColor"/>
    <path d="M1.02148 29.9585H46.3342V31.2912H1.02148V29.9585Z" fill="currentColor"/>
    <path d="M21.0137 32.6239H26.3446V33.9567H21.0137V32.6239Z" fill="currentColor"/>
  </symbol>
  <symbol id="el-moto" viewBox="0 0 48 43">
    <path d="M42.5172 28.409C42.7091 26.71 42.9181 23.7065 42.4984 20.676C42.4452 20.2905 42.0889 20.0208 41.7041 20.0749C41.3186 20.1281 41.0496 20.4838 41.103 20.8692C41.4938 23.6927 41.2958 26.5643 41.1385 28.053C40.6972 27.9795 40.2443 27.9405 39.7823 27.9405C38.6759 27.9405 37.6201 28.1608 36.6559 28.5589C37.3504 26.4631 37.7686 24.1005 37.8255 21.8616C37.904 18.7823 37.3157 15.9425 36.1171 13.5693H36.7068L37.2083 13.6696C38.6037 14.4077 39.6625 15.7601 40.357 17.6985C40.4882 18.065 40.8914 18.2554 41.2578 18.1242C41.624 17.993 41.8147 17.5897 41.6834 17.2233C41.2626 16.0486 40.7174 15.0535 40.0553 14.2391L40.3957 14.3071C40.8251 14.393 41.2383 14.0536 41.2383 13.6164V9.10777C41.2383 8.67025 40.825 8.33107 40.3957 8.41703L37.4812 8.99996V5.35044C37.4812 5.06245 37.3057 4.80343 37.0383 4.69636L33.6818 3.3538C33.4461 1.95658 32.2283 0.888794 30.7651 0.888794C29.1336 0.888794 27.8063 2.21608 27.8063 3.84757C27.8063 5.47907 29.1336 6.80635 30.7651 6.80635C32.0552 6.80635 33.1544 5.97602 33.5582 4.82189L36.072 5.82743V9.15455H29.2622C28.873 9.15455 28.5577 9.46982 28.5577 9.85897C28.5577 10.2481 28.8729 10.5635 29.2622 10.5635H33.8178V12.8647C33.8178 13.2512 34.1289 13.5645 34.5144 13.5688C37.7398 19.1021 36.2233 26.1694 34.7871 29.5271C34.767 29.5742 34.7526 29.6224 34.7432 29.6708C34.5305 29.8364 34.326 30.0121 34.1306 30.1974C34.1125 30.196 34.0944 30.1947 34.0759 30.1947H27.7062C28.3037 28.3501 28.724 26.1841 28.4047 24.1867C28.0393 21.9022 26.7942 20.1985 24.7066 19.1181V15.1191C24.7066 14.7299 24.3913 14.4146 24.0022 14.4146H15.7364C13.2763 14.4146 11.2748 16.4162 11.2748 18.8763V18.9256C11.2592 18.9246 11.2436 18.9233 11.2278 18.9233H11.1808V14.3207H11.9792C12.3683 14.3207 12.6836 14.0054 12.6836 13.6162V9.85906C12.6836 9.46991 12.3683 9.15464 11.9792 9.15464H0.707693C0.318545 9.15464 0.00317723 9.46991 0.00317723 9.85906V13.6162C0.00317723 14.0053 0.318451 14.3207 0.707693 14.3207H1.50605V18.9233H0.707693C0.318545 18.9233 0.00317723 19.2386 0.00317723 19.6278C0.00317723 20.0169 0.318451 20.3322 0.707693 20.3322H8.62967C8.08903 20.6047 7.57304 20.9014 7.08443 21.2217C-0.146257 25.9615 -0.0295408 33.0685 0.00889585 35.4039C0.0116145 35.5701 0.0162082 35.7368 0.0124583 35.903C0.00955209 36.0306 -0.00591631 36.1525 0.0292391 36.2782C0.113519 36.5786 0.395325 36.7926 0.707599 36.7926H2.28819C2.60853 40.1997 5.48387 42.8752 8.97345 42.8752C12.463 42.8752 15.3384 40.1997 15.6587 36.7926H24.0022C24.1881 36.7926 24.3664 36.7192 24.4982 36.5883C24.7 36.3881 25.1993 35.6456 25.7705 34.6094H31.7106C31.6144 35.1116 31.5634 35.6295 31.5634 36.1593C31.5634 36.5484 31.8787 36.8638 32.2679 36.8638H33.1035C33.4567 40.237 36.3171 42.8753 39.7822 42.8753C43.2473 42.8753 46.1076 40.2371 46.4609 36.8638H47.2965C47.6856 36.8638 48.001 36.5485 48.001 36.1593C48.0009 32.5859 45.7085 29.5384 42.5172 28.409ZM37.4808 10.4365L39.829 9.96687V12.7569L37.6707 12.3252C37.6077 12.2944 37.545 12.2631 37.4808 12.2342V10.4365ZM30.7649 5.39741C29.9103 5.39741 29.215 4.70218 29.215 3.84757C29.215 2.99297 29.9103 2.29773 30.7649 2.29773C31.6195 2.29773 32.3147 2.99297 32.3147 3.84757C32.3147 4.70218 31.6195 5.39741 30.7649 5.39741ZM36.0718 12.1603H35.2265V10.5635H35.2735H36.0718V12.1603ZM12.6835 18.8763C12.6835 17.193 14.0529 15.8236 15.7362 15.8236H23.2976V18.9233H12.6835V18.8763ZM1.41202 12.9118V10.5636H11.2746V12.9118H1.41202ZM2.91489 18.9233V14.3207H9.77171V18.9233H2.91489ZM8.97335 41.4663C6.26141 41.4663 4.01962 39.4212 3.70547 36.7926H5.3184C5.6199 38.5376 7.14358 39.8695 8.97335 39.8695C10.8031 39.8695 12.3268 38.5376 12.6283 36.7926H14.2411C13.9271 39.4212 11.6852 41.4663 8.97335 41.4663ZM6.76137 36.7925H11.1852C10.9094 37.7543 10.0226 38.4604 8.97326 38.4604C7.92394 38.4604 7.03718 37.7543 6.76137 36.7925ZM25.7431 31.4367C24.9427 33.3508 24.0328 34.8343 23.6549 35.3835H1.41774C1.41765 35.3826 1.41765 35.3816 1.41765 35.3807C1.37865 33.0105 1.27524 26.7143 7.85672 22.4C9.05763 21.6128 10.4446 20.9782 11.9792 20.514C12.097 20.4784 12.1986 20.4144 12.2788 20.3321H23.9901C25.6663 21.1772 26.6448 22.4488 26.9804 24.2196C27.4393 26.6415 26.5608 29.4812 25.7431 31.4367ZM32.1146 33.2004H26.4952C26.6534 32.8703 26.81 32.5268 26.961 32.1742C27.0392 31.9913 27.118 31.8005 27.1965 31.6036H32.9449C32.6127 32.1006 32.3334 32.6355 32.1146 33.2004ZM39.7821 41.4663C36.915 41.4663 34.5733 39.1806 34.4796 36.3358C35.1797 35.1086 35.9916 34.254 36.9779 33.7339C36.4141 34.3848 36.0718 35.2326 36.0718 36.1593C36.0718 38.2051 37.7362 39.8695 39.782 39.8695C41.8278 39.8695 43.4922 38.2051 43.4922 36.1593C43.4922 35.33 43.2185 34.5633 42.757 33.9449C43.7836 34.5782 44.5447 35.4791 45.0849 36.322C44.9984 39.173 42.6538 41.4663 39.7821 41.4663ZM37.4808 36.1592C37.4808 34.8902 38.513 33.858 39.782 33.858C41.051 33.858 42.0832 34.8902 42.0832 36.1592C42.0832 37.4282 41.051 38.4604 39.782 38.4604C38.513 38.4604 37.4808 37.4282 37.4808 36.1592ZM46.2021 35.4548C44.6062 33.0282 42.3395 31.6976 39.7821 31.6976C36.1301 31.6976 34.3683 33.7434 33.3606 35.4548H33.0084C33.3622 32.0296 36.2651 29.3493 39.7821 29.3493C43.2991 29.3493 46.2021 32.0296 46.5558 35.4548H46.2021Z" fill="currentColor"/>
    <path d="M23.2505 23.4318H16.4876C16.0985 23.4318 15.7832 23.7471 15.7832 24.1363C15.7832 24.5255 16.0985 24.8407 16.4876 24.8407H23.2505C23.6397 24.8407 23.955 24.5255 23.955 24.1363C23.955 23.7472 23.6397 23.4318 23.2505 23.4318Z" fill="currentColor"/>
    <path d="M21.7485 27.9404H11.9799C11.5908 27.9404 11.2754 28.2557 11.2754 28.6448C11.2754 29.034 11.5908 29.3493 11.9799 29.3493H21.7485C22.1377 29.3493 22.453 29.034 22.453 28.6448C22.453 28.2557 22.1378 27.9404 21.7485 27.9404Z" fill="currentColor"/>
    <path d="M19.4929 32.449H7.47005C7.0809 32.449 6.76562 32.7643 6.76562 33.1536C6.76562 33.5427 7.0809 33.858 7.47005 33.858H19.4929C19.8821 33.858 20.1974 33.5427 20.1974 33.1536C20.1974 32.7643 19.8821 32.449 19.4929 32.449Z" fill="currentColor"/>
  </symbol>
  <symbol id="el-scooter" viewBox="0 0 38 38">
    <path d="M5.29817 30.8477C4.27594 30.8477 3.44727 31.6764 3.44727 32.6986C3.44727 33.7208 4.27594 34.5495 5.29817 34.5495C6.32039 34.5495 7.14907 33.7208 7.14907 32.6986C7.14907 31.6764 6.32039 30.8477 5.29817 30.8477ZM5.29817 33.3156C4.95742 33.3156 4.6812 33.0394 4.6812 32.6986C4.6812 32.3579 4.95742 32.0817 5.29817 32.0817C5.63891 32.0817 5.91513 32.3579 5.91513 32.6986C5.91513 33.0394 5.63891 33.3156 5.29817 33.3156Z" fill="currentColor"/>
    <path d="M37.3654 30.2165C37.9841 29.5989 38.1694 28.6692 37.8347 27.8616C37.5 27.054 36.7114 26.5278 35.8372 26.5289H33.6778C33.1052 26.5298 32.556 26.7566 32.1496 27.1601L29.0789 30.2307H8.83626C8.66466 29.9861 8.46824 29.7599 8.25014 29.5557L9.17559 23.1819C9.2605 22.5915 9.12593 21.9904 8.79739 21.4926L11.2202 4.93506H14.9911C15.4772 5.3311 16.0842 5.54882 16.7112 5.55203C18.2446 5.55203 19.4876 4.30902 19.4876 2.77568C19.4876 1.24234 18.2446 -0.000671387 16.7112 -0.000671387C16.0832 0.00183201 15.475 0.219595 14.988 0.616296H8.07369C7.501 0.617015 6.95176 0.84385 6.54546 1.24745C6.00381 1.78876 5.79041 2.57701 5.98499 3.31764C6.17958 4.05827 6.75288 4.63983 7.49065 4.84499L5.13446 20.9614C4.67927 21.3461 4.37988 21.8835 4.2923 22.473L3.36685 28.8413C1.67656 29.6849 0.731539 31.5299 1.03466 33.3946C1.33779 35.2592 2.81857 36.7099 4.68905 36.9747C6.55952 37.2394 8.38475 36.2567 9.19348 34.5495H29.7909C30.4843 36.0093 31.9359 36.9587 33.5513 37.0087C35.1666 37.0588 36.6743 36.2011 37.4567 34.787C38.2391 33.3729 38.1648 31.6399 37.2642 30.298C37.2957 30.269 37.3346 30.2474 37.3654 30.2165ZM7.68932 20.5604C7.49774 20.4764 7.29621 20.4173 7.08963 20.3845C6.88276 20.358 6.67336 20.358 6.46649 20.3845L8.72459 4.93506H9.97024L7.68932 20.5604ZM16.7112 1.23326C17.5631 1.23326 18.2536 1.92383 18.2536 2.77568C18.2536 3.62753 17.5631 4.3181 16.7112 4.3181C15.8594 4.3181 15.1688 3.62753 15.1688 2.77568C15.1688 1.92383 15.8594 1.23326 16.7112 1.23326ZM7.14824 2.77568C7.14725 2.52993 7.24443 2.29397 7.4182 2.1202C7.59197 1.94643 7.82794 1.84924 8.07369 1.85023L14.1052 1.85022C13.9955 2.1466 13.9379 2.45969 13.9349 2.77568C13.9379 3.09167 13.9955 3.40476 14.1052 3.70113H8.07369C7.56258 3.70113 7.14824 3.28679 7.14824 2.77568ZM5.51327 22.6507C5.61073 21.9758 6.23679 21.5077 6.91163 21.6052C7.58647 21.7027 8.05453 22.3287 7.95708 23.0036L7.11554 28.7864C6.3558 28.4236 5.50401 28.2995 4.67235 28.4304L5.51327 22.6507ZM5.29734 35.7834C3.59363 35.7834 2.2125 34.4023 2.2125 32.6986C2.2125 30.9949 3.59363 29.6137 5.29734 29.6137C7.00104 29.6137 8.38217 30.9949 8.38217 32.6986C8.38013 34.4014 7.0002 35.7814 5.29734 35.7834ZM9.4341 31.4646H29.3344C29.498 31.4646 29.6549 31.3996 29.7706 31.2839L33.0226 28.0325C33.1969 27.8597 33.4324 27.7628 33.6778 27.7628H35.8372C36.2124 27.7617 36.5512 27.9872 36.6949 28.3337C36.8387 28.6803 36.7589 29.0794 36.493 29.3441C36.3947 29.4408 36.2766 29.5151 36.1469 29.5619C36.0477 29.5962 35.9434 29.6137 35.8384 29.6137H34.3195C34.1558 29.6138 33.9989 29.6788 33.8833 29.7945L30.6312 33.0459C30.4937 33.1817 30.3181 33.2723 30.1278 33.3057C30.079 33.3106 30.0254 33.3155 29.976 33.3155H9.56675C9.66337 32.6965 9.61802 32.0636 9.4341 31.4646ZM34.2948 32.6986C34.2948 33.0393 34.0186 33.3155 33.6778 33.3155C33.3371 33.3155 33.0608 33.0393 33.0608 32.6986C33.0608 32.3578 33.3371 32.0816 33.6778 32.0816C34.0186 32.0816 34.2948 32.3578 34.2948 32.6986ZM33.6778 35.7834C32.5894 35.7818 31.5827 35.2054 31.0304 34.2675C31.2037 34.1735 31.3632 34.056 31.5042 33.9183L31.9836 33.4389C32.3139 34.2005 33.111 34.649 33.9334 34.5362C34.7558 34.4233 35.4025 33.7766 35.5154 32.9541C35.6283 32.1317 35.1798 31.3347 34.4182 31.0044L34.5749 30.8477H35.8372C35.9277 30.8456 36.0179 30.838 36.1074 30.8248C36.5305 31.3579 36.7614 32.0181 36.7626 32.6986C36.7606 34.4014 35.3807 35.7814 33.6778 35.7834Z" fill="currentColor"/>
  </symbol>
  <symbol id="game-console" viewBox="0 0 41 36">
    <path d="M21.0303 7.19513C19.1222 7.19513 17.492 8.0162 16.7764 9.33726C16.6213 9.6228 16.7276 9.97971 17.0132 10.1344C17.2987 10.2895 17.6556 10.1831 17.8103 9.89761C18.3128 8.97054 19.5766 8.37128 21.0303 8.37128C22.4843 8.37128 23.7481 8.97054 24.2505 9.89761C24.3571 10.0943 24.5593 10.2058 24.768 10.2058C24.8626 10.2058 24.9588 10.1828 25.0477 10.1347C25.3332 9.98002 25.4392 9.6231 25.2845 9.33726C24.5688 8.0162 22.9387 7.19513 21.0303 7.19513Z" fill="currentColor"/>
    <path d="M27.0316 7.92801C27.1382 8.12439 27.3404 8.23591 27.549 8.23591C27.6437 8.23591 27.7399 8.21293 27.8287 8.16483C28.1143 8.01012 28.2203 7.6532 28.0656 7.36766C26.8931 5.20378 24.1974 3.86005 21.0301 3.86005C17.8632 3.86005 15.1674 5.20409 13.995 7.36766C13.8403 7.6532 13.9463 8.01012 14.2318 8.16483C14.5173 8.31955 14.8742 8.21355 15.029 7.92801C15.9956 6.14433 18.2952 5.0362 21.0301 5.0362C23.7654 5.0362 26.065 6.14402 27.0316 7.92801Z" fill="currentColor"/>
    <path d="M11.2842 6.62157C11.5701 6.77659 11.9267 6.67059 12.0817 6.38506C13.5327 3.70954 16.9619 2.04749 21.031 2.04749C25.0999 2.04749 28.5291 3.70954 29.9804 6.38506C30.0867 6.58144 30.2889 6.69296 30.4978 6.69296C30.5925 6.69296 30.6884 6.66998 30.7775 6.62157C31.0631 6.46686 31.1691 6.10994 31.0141 5.8244C29.3572 2.76929 25.5319 0.871338 21.031 0.871338C16.5302 0.871338 12.7049 2.76929 11.0477 5.8244C10.893 6.10994 10.999 6.46686 11.2842 6.62157Z" fill="currentColor"/>
    <path d="M32.3236 18.8092C33.1664 18.8092 33.8521 18.1226 33.8521 17.2785C33.8521 16.4345 33.1664 15.7479 32.3236 15.7479C31.4798 15.7479 30.793 16.4345 30.793 17.2785C30.793 18.1226 31.4798 18.8092 32.3236 18.8092ZM32.3236 16.9241C32.5181 16.9241 32.6759 17.0831 32.6759 17.2785C32.6759 17.4709 32.5148 17.6333 32.3236 17.6333C32.1281 17.6333 31.9691 17.474 31.9691 17.2785C31.9691 17.0831 32.1284 16.9241 32.3236 16.9241Z" fill="currentColor"/>
    <path d="M32.3236 20.5856C31.4798 20.5856 30.793 21.2724 30.793 22.1165C30.793 22.9605 31.4798 23.6471 32.3236 23.6471C33.1664 23.6471 33.8521 22.9605 33.8521 22.1165C33.8521 21.2724 33.1664 20.5856 32.3236 20.5856ZM32.3236 22.471C32.1281 22.471 31.9691 22.312 31.9691 22.1165C31.9691 21.921 32.1281 21.7617 32.3236 21.7617C32.5148 21.7617 32.6759 21.9241 32.6759 22.1165C32.6762 22.312 32.5181 22.471 32.3236 22.471Z" fill="currentColor"/>
    <path d="M31.4343 19.6973C31.4343 18.8536 30.7477 18.1667 29.9037 18.1667C29.0596 18.1667 28.373 18.8533 28.373 19.6973C28.373 20.5414 29.0596 21.2282 29.9037 21.2282C30.7477 21.2282 31.4343 20.5414 31.4343 19.6973ZM29.9037 20.0521C29.7082 20.0521 29.5492 19.8931 29.5492 19.6973C29.5492 19.5018 29.7082 19.3428 29.9037 19.3428C30.0991 19.3428 30.2584 19.5018 30.2584 19.6973C30.2584 19.8931 30.0991 20.0521 29.9037 20.0521Z" fill="currentColor"/>
    <path d="M34.7438 18.1667C33.8998 18.1667 33.2129 18.8533 33.2129 19.6973C33.2129 20.5414 33.8998 21.2282 34.7438 21.2282C35.5879 21.2282 36.2744 20.5414 36.2744 19.6973C36.2744 18.8536 35.5879 18.1667 34.7438 18.1667ZM34.7438 20.0521C34.5484 20.0521 34.389 19.8931 34.389 19.6973C34.389 19.5018 34.5484 19.3428 34.7438 19.3428C34.9393 19.3428 35.0983 19.5018 35.0983 19.6973C35.0983 19.8931 34.9393 20.0521 34.7438 20.0521Z" fill="currentColor"/>
    <path d="M15.4371 21.9485C13.9007 21.9485 12.6504 23.1985 12.6504 24.7353C12.6504 26.272 13.9007 27.522 15.4371 27.522C16.9739 27.522 18.2238 26.2717 18.2238 24.7353C18.2238 23.1985 16.9739 21.9485 15.4371 21.9485ZM15.4371 26.3462C14.549 26.3462 13.8265 25.6234 13.8265 24.7353C13.8265 23.8471 14.549 23.1247 15.4371 23.1247C16.3253 23.1247 17.048 23.8471 17.048 24.7353C17.048 25.6234 16.3253 26.3462 15.4371 26.3462Z" fill="currentColor"/>
    <path d="M40.7304 28.7232L37.8981 17.031C37.4906 15.3493 36.6815 14.0675 35.4931 13.221C35.248 13.0463 34.9879 12.8922 34.7155 12.7593V12.5185C34.7155 11.2945 33.7207 10.2988 32.498 10.2988H31.1797C29.9555 10.2988 28.9598 11.2945 28.9598 12.5185V12.8582C28.4852 13.1168 28.1105 13.4321 27.8856 13.7804H22.2135C21.8888 13.7804 21.6253 14.0436 21.6253 14.3683C21.6253 14.6931 21.8888 14.9566 22.2135 14.9566H27.6703V16.1581C27.6703 16.822 27.1311 17.3622 26.4687 17.3622H15.3751C14.7115 17.3622 14.1713 16.822 14.1713 16.1581V14.9566H19.497C19.8217 14.9566 20.0849 14.6931 20.0849 14.3683C20.0849 14.0436 19.8217 13.7804 19.497 13.7804H13.956C13.7317 13.4327 13.3579 13.1177 12.884 12.8592V12.5185C12.884 11.2945 11.8883 10.2985 10.664 10.2985H9.34819C8.12394 10.2985 7.12824 11.2945 7.12824 12.5185V12.759C6.85649 12.8919 6.5973 13.0457 6.35251 13.2197C5.16319 14.0659 4.35346 15.3484 3.94568 17.031L1.1133 28.7229C0.696333 30.4432 0.763428 31.8984 1.31244 33.0485C1.80355 34.0767 2.65525 34.8025 3.77565 35.1469C6.17666 35.8852 8.9879 34.653 9.79181 32.5099L11.1524 28.8859C11.3273 28.4196 11.4661 28.3605 11.4676 28.3599C11.4836 28.3562 11.5902 28.37 11.7924 28.5177C13.6977 30.2477 16.8181 30.173 18.8729 28.3801H22.9706C23.9212 29.21 25.1292 29.7015 26.3982 29.7698C27.7836 29.8442 29.0789 29.3997 30.0511 28.5177C30.279 28.351 30.3743 28.359 30.3752 28.3599C30.3764 28.3605 30.5149 28.4193 30.6911 28.8856L32.0495 32.5099C32.6953 34.2293 34.6325 35.3622 36.6129 35.3619C37.1018 35.3619 37.5935 35.293 38.069 35.1466C39.1891 34.8019 40.0405 34.0761 40.5313 33.0476C41.0803 31.8978 41.1474 30.4429 40.7304 28.7232ZM31.1794 11.4747H32.4977C33.0084 11.4747 33.4337 11.8451 33.5219 12.3319C33.0339 12.2133 32.5213 12.1508 31.9916 12.149C31.9833 12.149 31.9754 12.149 31.9674 12.149C31.3304 12.149 30.7088 12.2366 30.1442 12.391C30.2076 11.8757 30.6472 11.4747 31.1794 11.4747ZM9.34819 11.4747H10.664C11.1965 11.4747 11.6361 11.8757 11.6993 12.3913C11.1349 12.2369 10.513 12.149 9.87606 12.149C9.86932 12.149 9.86258 12.149 9.85584 12.149C9.3249 12.1505 8.81112 12.213 8.32185 12.3319C8.41039 11.8451 8.83624 11.4747 9.34819 11.4747ZM37.7231 34.0225C36.0948 34.5237 33.793 33.8065 33.1509 32.0967L31.7918 28.4714C31.5277 27.7723 31.1714 27.3666 30.7027 27.2306C30.2732 27.1056 29.809 27.2281 29.3231 27.5936C29.3078 27.6053 29.2928 27.6178 29.2787 27.6307C27.7655 29.0222 25.2196 28.9037 23.6038 27.3663C23.4945 27.2622 23.3492 27.2043 23.1985 27.2043H18.6453C18.4945 27.2043 18.3493 27.2622 18.2399 27.3663C16.6229 28.9046 14.0773 29.0235 12.5654 27.631C12.551 27.6178 12.536 27.6053 12.5203 27.5936C12.0338 27.2275 11.5691 27.1056 11.1386 27.2309C10.6692 27.3675 10.3136 27.7738 10.0513 28.4726L8.69072 32.0967C8.04949 33.8065 5.74927 34.5237 4.12123 34.0231C2.29803 33.4621 1.6182 31.6316 2.25606 29.0002L5.08843 17.3082C5.60007 15.1971 6.73609 14.1814 7.86689 13.709C7.91438 13.6965 7.95972 13.6784 8.00169 13.6548C8.67632 13.3981 9.34022 13.3267 9.85921 13.3251C10.7373 13.3239 11.4946 13.5123 12.0476 13.7537C12.0571 13.758 12.0666 13.7626 12.0767 13.7666C12.5795 13.9906 12.907 14.2574 12.9949 14.4612V16.1581C12.9949 17.4703 14.0626 18.538 15.3748 18.538H26.4684C27.7793 18.538 28.8461 17.4703 28.8461 16.1581V14.4615C28.9331 14.2602 29.2536 13.997 29.745 13.7746C29.7738 13.7642 29.8017 13.7525 29.828 13.7381C30.3743 13.505 31.1117 13.3251 31.9659 13.3251H31.987C32.5054 13.327 33.1687 13.3987 33.8424 13.6554C33.8837 13.6784 33.9285 13.6962 33.9753 13.7087C35.1064 14.1808 36.2431 15.1964 36.7547 17.3079L39.5871 29.0002C40.2252 31.631 39.5457 33.4615 37.7231 34.0225Z" fill="currentColor"/>
    <path d="M26.8668 21.9485C25.3301 21.9485 24.0801 23.1985 24.0801 24.7353C24.0801 26.272 25.3301 27.522 26.8668 27.522C28.4032 27.522 29.6535 26.2717 29.6535 24.7353C29.6535 23.1985 28.4032 21.9485 26.8668 21.9485ZM26.8668 26.3462C25.9786 26.3462 25.2562 25.6234 25.2562 24.7353C25.2562 23.8471 25.9786 23.1247 26.8668 23.1247C27.755 23.1247 28.4774 23.8471 28.4774 24.7353C28.4774 25.6234 27.755 26.3462 26.8668 26.3462Z" fill="currentColor"/>
    <path d="M11.3737 18.1646H11.1947V17.9857C11.1947 16.9909 10.3853 16.1815 9.39054 16.1815C8.39576 16.1815 7.58633 16.9909 7.58633 17.9857V18.1646H7.40741C6.41264 18.1646 5.60352 18.974 5.60352 19.9688C5.60352 20.9636 6.41264 21.773 7.40741 21.773H7.58633V21.9519C7.58633 22.9467 8.39576 23.7561 9.39054 23.7561C10.3853 23.7561 11.1947 22.9467 11.1947 21.9519V21.773H11.3737C12.3684 21.773 13.1779 20.9636 13.1779 19.9688C13.1779 18.974 12.3684 18.1646 11.3737 18.1646ZM11.3737 20.5968H10.6068C10.2821 20.5968 10.0186 20.86 10.0186 21.1848V21.9519C10.0186 22.2981 9.73704 22.58 9.39054 22.58C9.04434 22.58 8.76279 22.2981 8.76279 21.9519V21.1848C8.76279 20.86 8.49931 20.5968 8.17456 20.5968H7.40772C7.06152 20.5968 6.77966 20.315 6.77966 19.9688C6.77966 19.6226 7.06152 19.3407 7.40772 19.3407H8.17456C8.49931 19.3407 8.76279 19.0773 8.76279 18.7525V17.9857C8.76279 17.6392 9.04434 17.3576 9.39054 17.3576C9.73704 17.3576 10.0186 17.6392 10.0186 17.9857V18.7525C10.0186 19.0773 10.2821 19.3407 10.6068 19.3407H11.3737C11.7199 19.3407 12.0017 19.6226 12.0017 19.9688C12.0017 20.315 11.7202 20.5968 11.3737 20.5968Z" fill="currentColor"/>
    <path d="M19.3793 20.3411H18.5254C18.2007 20.3411 17.9375 20.6045 17.9375 20.9293C17.9375 21.254 18.2007 21.5172 18.5254 21.5172H19.3793C19.704 21.5172 19.9672 21.254 19.9672 20.9293C19.9672 20.6045 19.704 20.3411 19.3793 20.3411Z" fill="currentColor"/>
    <path d="M23.3192 20.3411H22.4632C22.1385 20.3411 21.875 20.6045 21.875 20.9293C21.875 21.254 22.1385 21.5172 22.4632 21.5172H23.3192C23.644 21.5172 23.9071 21.254 23.9071 20.9293C23.9071 20.6045 23.644 20.3411 23.3192 20.3411Z" fill="currentColor"/>
    <path d="M21.5746 23.4226H20.721C20.3963 23.4226 20.1328 23.6857 20.1328 24.0105C20.1328 24.3352 20.3963 24.5987 20.721 24.5987H21.5746C21.8996 24.5987 22.1628 24.3352 22.1628 24.0105C22.1628 23.6857 21.8996 23.4226 21.5746 23.4226Z" fill="currentColor"/>
  </symbol>
  <symbol id="mixer" viewBox="0 0 21 45">
    <path d="M16.5641 31.3245V29.6982C17.4433 29.4567 18.0827 28.6982 18.172 27.7909L20.2603 6.94427C20.2603 6.9317 20.2559 6.91988 20.2603 6.90805C20.2648 6.89622 20.2603 6.88365 20.2603 6.87035C20.2579 4.83004 18.6044 3.17654 16.5641 3.17413H14.3464V2.43489C14.3464 1.21006 13.3535 0.217163 12.1287 0.217163H9.17169C7.94686 0.217163 6.95396 1.21006 6.95396 2.43489V3.17413H4.73624C2.69593 3.17654 1.04243 4.83004 1.04002 6.87035C1.04002 6.88365 1.04668 6.89474 1.04742 6.90805C1.04816 6.92135 1.04224 6.9317 1.04372 6.94427L3.12838 27.7909C3.21857 28.6974 3.85774 29.4548 4.73624 29.6959V31.3223C2.19269 31.6913 0.30457 33.8699 0.300781 36.4401V42.354C0.300781 43.5788 1.29368 44.5717 2.51851 44.5717H18.7818C20.0067 44.5717 20.9996 43.5788 20.9996 42.354V36.4401C20.9947 33.8707 19.1068 31.6935 16.5641 31.3245ZM8.43245 2.43489C8.43245 2.02664 8.76345 1.69565 9.17169 1.69565H12.1287C12.5369 1.69565 12.8679 2.02664 12.8679 2.43489V3.17413H8.43245V2.43489ZM4.73624 4.65262H16.5641C17.5037 4.65373 18.341 5.24568 18.6554 6.1311H2.64492C2.95937 5.24568 3.79666 4.65373 4.73624 4.65262ZM2.59613 7.60959H18.7079L17.8267 16.3829C16.0219 18.1108 13.1581 18.0485 11.4302 16.2437C11.3569 16.1672 11.2864 16.0881 11.2187 16.0066C9.26678 13.6651 5.87144 13.1549 3.31763 14.8194L2.59613 7.60959ZM4.59948 27.6431L3.49061 16.5626C5.30287 14.8442 8.16503 14.9203 9.88331 16.7326C9.95132 16.8043 10.017 16.8783 10.0801 16.9544C11.1626 18.2504 12.7393 19.0327 14.4261 19.1107C14.5171 19.1107 14.6065 19.1166 14.6974 19.1166C15.724 19.1145 16.7329 18.8501 17.6285 18.3486L16.7009 27.6431C16.6628 28.0222 16.3427 28.3103 15.9616 28.3084H5.33502C4.95533 28.3084 4.63746 28.0208 4.59948 27.6431ZM15.0856 29.7869V31.2654H6.21472V29.7869H15.0856ZM19.5211 42.354C19.5211 42.7622 19.1901 43.0932 18.7818 43.0932H2.51851C2.11026 43.0932 1.77927 42.7622 1.77927 42.354V36.4401C1.78167 34.3997 3.43517 32.7462 5.47548 32.7438H15.8249C17.8652 32.7462 19.5187 34.3997 19.5211 36.4401V42.354Z" fill="currentColor"/>
    <path d="M10.6493 34.2223C8.60801 34.2223 6.95312 35.8772 6.95312 37.9185C6.95553 39.9588 8.60903 41.6123 10.6493 41.6147C12.6907 41.6147 14.3456 39.9598 14.3456 37.9185C14.3456 35.8772 12.6907 34.2223 10.6493 34.2223ZM10.6493 40.1362C9.42451 40.1362 8.43161 39.1433 8.43161 37.9185C8.43161 36.6937 9.42451 35.7008 10.6493 35.7008C11.8742 35.7008 12.8671 36.6937 12.8671 37.9185C12.8671 39.1433 11.8742 40.1362 10.6493 40.1362Z" fill="currentColor"/>
    <path d="M10.6494 36.44C10.2412 36.44 9.91016 36.771 9.91016 37.1793V37.9185C9.91016 38.3268 10.2412 38.6578 10.6494 38.6578C11.0576 38.6578 11.3886 38.3268 11.3886 37.9185V37.1793C11.3886 36.771 11.0576 36.44 10.6494 36.44Z" fill="currentColor"/>
    <path d="M7.63441 19.8885C7.59708 19.7988 7.54459 19.7163 7.47917 19.6445C7.18301 19.3702 6.7256 19.3702 6.42944 19.6445C6.36402 19.7163 6.31153 19.7988 6.2742 19.8885C6.2328 19.9761 6.21248 20.0724 6.21506 20.1694C6.21377 20.2652 6.23105 20.3604 6.26607 20.4495C6.3095 20.538 6.36439 20.6202 6.42944 20.6942C6.50134 20.7593 6.58385 20.8115 6.67339 20.8487C6.8522 20.9286 7.05641 20.9286 7.23522 20.8487C7.32467 20.8113 7.40709 20.7591 7.47917 20.6942C7.69078 20.4826 7.75223 20.1635 7.63441 19.8885Z" fill="currentColor"/>
    <path d="M14.8717 21.8622C14.8348 21.8326 14.7978 21.7957 14.7608 21.7728C14.7197 21.7449 14.6749 21.7227 14.6278 21.707C14.5859 21.6855 14.541 21.6703 14.4947 21.6619C14.2511 21.6125 13.999 21.6877 13.822 21.8622C13.6866 22.0037 13.61 22.1913 13.6076 22.3871C13.6051 22.4838 13.6255 22.5797 13.6668 22.6672C13.7043 22.7571 13.7568 22.8398 13.822 22.9119C13.8939 22.977 13.9764 23.0292 14.066 23.0664C14.3408 23.1854 14.6604 23.1241 14.8717 22.9119C14.937 22.8398 14.9895 22.7571 15.027 22.6672C15.068 22.5796 15.0882 22.4837 15.0861 22.3871C15.0834 22.1914 15.0068 22.0039 14.8717 21.8622Z" fill="currentColor"/>
  </symbol>
  <symbol id="monocycle" viewBox="0 0 35 50">
    <path d="M32.8617 33.2143H34.3674C34.3674 24.9905 28.3819 17.9855 20.3384 16.6515V7.91315H23.5938C24.5615 7.91315 25.3486 7.12585 25.3486 6.15835V0.896057H17.0801V2.40179H23.843V6.15835C23.843 6.29348 23.7289 6.40751 23.5938 6.40751H11.5691C11.434 6.40751 11.3198 6.29338 11.3198 6.15835V2.40179H15.0757V0.896057H9.81411V6.15825C9.81411 7.12595 10.6014 7.91305 11.569 7.91305H14.8245V16.6521C12.298 17.0732 9.87962 18.076 7.79394 19.5758L8.67311 20.7983C10.5033 19.482 12.6149 18.5863 14.8245 18.1803V21.2461C12.478 21.7818 10.2993 23.0283 8.636 24.8019C6.48789 27.0829 5.30469 30.0704 5.30469 33.2143C5.30469 36.3558 6.49182 39.3403 8.64348 41.6142C10.9423 44.0779 14.2 45.4909 17.5813 45.4909C20.9626 45.4909 24.2203 44.0778 26.5154 41.618C28.6708 39.3403 29.8579 36.3557 29.8579 33.2142C29.8579 30.0704 28.6748 27.0828 26.5277 24.8029C24.8635 23.0283 22.6847 21.7818 20.3382 21.2461V18.1797C27.5353 19.4949 32.8617 25.8123 32.8617 33.2143ZM16.3303 7.91315H18.8329V10.9168H16.3303V7.91315ZM14.8246 22.7948V28.7537C14.5907 28.8975 14.3705 29.0577 14.1648 29.2338L10.251 25.3201C11.547 24.1148 13.129 23.2411 14.8246 22.7948ZM9.22016 26.4185L13.1692 30.3676C12.7551 30.9992 12.4846 31.7141 12.3751 32.4613H6.83651C6.98957 30.2402 7.8182 28.1394 9.22016 26.4185ZM6.8367 33.967H12.3745C12.4834 34.7164 12.7528 35.4323 13.1654 36.0645L9.2286 40.0012C7.82223 38.2838 6.99053 36.1858 6.8367 33.967ZM16.8287 43.9577C14.3803 43.7844 12.0507 42.7717 10.2593 41.1L14.1563 37.203C14.9068 37.8569 15.8329 38.2788 16.8287 38.4211V43.9577ZM18.3343 43.9578V38.4211C19.33 38.2788 20.2561 37.8568 21.0067 37.203L24.9039 41.1002C23.1146 42.7708 20.7841 43.7845 18.3343 43.9578ZM25.9341 40.0009L21.9996 36.0665C22.4122 35.4381 22.6813 34.7215 22.7893 33.967H28.3263C28.1724 36.1844 27.3414 38.2816 25.9341 40.0009ZM28.3264 32.4613H22.7879C22.6783 31.7141 22.4079 30.9993 21.9937 30.3676L25.9429 26.4185C27.3446 28.1389 28.1733 30.2399 28.3264 32.4613ZM20.3385 22.7948C22.0337 23.2411 23.6154 24.1146 24.9119 25.3201L20.9981 29.2338C20.7924 29.0577 20.5723 28.8975 20.3384 28.7537V22.7948H20.3385ZM20.4243 30.7849L20.431 30.7929C21.0243 31.4733 21.3378 32.3106 21.3378 33.2141C21.3378 34.1208 21.017 34.9829 20.4346 35.6413L20.4205 35.6576C19.7236 36.4921 18.6888 36.9707 17.5813 36.9707C16.4737 36.9707 15.4388 36.4921 14.7421 35.6576L14.7316 35.6454C14.1468 34.9746 13.8248 34.1112 13.8248 33.2141C13.8248 32.3106 14.1384 31.4733 14.7316 30.7929L14.7383 30.7849C15.0588 30.4069 15.4542 30.0989 15.9137 29.8691L16.3298 29.6611V12.4225H18.8324V29.661L19.2489 29.8692C19.7085 30.099 20.1039 30.407 20.4243 30.7849Z" fill="currentColor"/>
    <path d="M32.6758 35.603C32.1181 39.1611 30.3012 42.4233 27.5599 44.7886C24.7904 47.1784 21.2464 48.4944 17.5808 48.4944C9.15528 48.4944 2.30056 41.6397 2.30056 33.2141C2.30056 28.7939 4.21504 24.5918 7.55306 21.6851L6.56427 20.5495C2.89777 23.7422 0.794922 28.3582 0.794922 33.214C0.794922 42.4699 8.32511 50.0001 17.5809 50.0001C21.6075 50.0001 25.5008 48.5542 28.5436 45.9285C31.5547 43.3304 33.5505 39.7461 34.1635 35.836L32.6758 35.603Z" fill="currentColor"/>
    <path d="M19.0843 32.4615H16.0781V33.9672H19.0843V32.4615Z" fill="currentColor"/>
    <path d="M19.0843 3.40131H16.0781V4.90704H19.0843V3.40131Z" fill="currentColor"/>
  </symbol>
  <symbol id="notebook" viewBox="0 0 50 36">
    <path d="M48.3362 29.4777H45.781V3.56155C45.781 1.94562 44.471 0.63562 42.8551 0.63562H6.24076C4.62483 0.63562 3.31483 1.94562 3.31483 3.56155V29.4777H0.988387C0.588193 29.4777 0.263672 29.8023 0.263672 30.2025V31.803C0.263672 34.1208 2.14275 36 4.46071 36H31.7646C32.1648 36 32.4893 35.6755 32.4893 35.2753C32.4893 34.8751 32.1648 34.5506 31.7646 34.5506H4.46071C2.94323 34.5505 1.7131 33.3204 1.7131 31.803V30.9272H4.03965H18.7935C18.8192 32.33 19.9676 33.4636 21.3766 33.4636H27.948C29.3569 33.4636 30.5054 32.33 30.5311 30.9272H45.0565H47.6117V31.803C47.6117 33.3204 46.3816 34.5506 44.8641 34.5506H35.1467C34.7466 34.5506 34.422 34.8751 34.422 35.2753C34.422 35.6755 34.7466 36 35.1467 36H44.864C47.1818 36 49.061 34.1209 49.061 31.803V30.2025C49.0609 29.8022 48.7364 29.4777 48.3362 29.4777ZM27.9479 32.0141H21.3765C20.7668 32.0141 20.2678 31.5308 20.2427 30.9271H29.0817C29.0566 31.5307 28.5577 32.0141 27.9479 32.0141ZM44.3316 29.4777H4.76436V3.56155C4.76436 2.74734 5.42665 2.08505 6.24086 2.08505H42.8551C43.6693 2.08505 44.3316 2.74734 44.3316 3.56155V29.4777Z" fill="currentColor"/>
    <path d="M42.3498 3.34119H14.2743C13.8741 3.34119 13.5496 3.66571 13.5496 4.06591C13.5496 4.4661 13.8741 4.79062 14.2743 4.79062H41.625V26.7721H7.46896V4.79053H10.8921C11.2923 4.79053 11.6168 4.466 11.6168 4.06581C11.6168 3.66562 11.2923 3.34109 10.8921 3.34109H6.74425C6.34405 3.34109 6.01953 3.66562 6.01953 4.06581V27.4967C6.01953 27.8969 6.34405 28.2214 6.74425 28.2214H42.3498C42.7499 28.2214 43.0745 27.8969 43.0745 27.4967V4.06591C43.0745 3.66562 42.75 3.34119 42.3498 3.34119Z" fill="currentColor"/>
  </symbol>
  <symbol id="printer" viewBox="0 0 46 46">
    <path d="M31.2828 9.25477C31.372 9.25482 31.4604 9.23729 31.5428 9.20317C31.6252 9.16905 31.7001 9.11902 31.7632 9.05593C31.8263 8.99285 31.8763 8.91794 31.9105 8.83551C31.9446 8.75307 31.9621 8.66472 31.9621 8.5755V4.59693C31.9621 4.41678 31.8905 4.244 31.7631 4.11662C31.6357 3.98923 31.4629 3.91766 31.2828 3.91766C31.1026 3.91766 30.9299 3.98923 30.8025 4.11662C30.6751 4.244 30.6035 4.41678 30.6035 4.59693V8.5755C30.6035 8.66472 30.621 8.75307 30.6551 8.83551C30.6892 8.91794 30.7393 8.99285 30.8024 9.05593C30.8654 9.11902 30.9403 9.16905 31.0228 9.20317C31.1052 9.23729 31.1936 9.25482 31.2828 9.25477Z" fill="currentColor"/>
    <path d="M42.9919 14.5985H39.1337V5.14694C39.1335 4.96682 39.0619 4.7941 38.9346 4.66674C38.8072 4.53937 38.6345 4.46777 38.4544 4.46767H34.2895V0.683175C34.2895 0.503022 34.2179 0.330247 34.0905 0.202859C33.9632 0.0754719 33.7904 0.00390625 33.6102 0.00390625H12.3938C12.2136 0.00390625 12.0408 0.0754719 11.9134 0.202859C11.7861 0.330247 11.7145 0.503022 11.7145 0.683175V4.46767H7.54961C7.36949 4.46777 7.19677 4.53937 7.06941 4.66674C6.94204 4.7941 6.87044 4.96682 6.87034 5.14694V14.5985H3.0121C2.21456 14.5994 1.44995 14.9166 0.886006 15.4806C0.322061 16.0445 0.00483081 16.8091 0.00390625 17.6067V36.1255C0.00483081 36.923 0.322061 37.6876 0.886006 38.2516C1.44995 38.8155 2.21456 39.1327 3.0121 39.1337H11.7133V45.3208C11.7133 45.501 11.7849 45.6737 11.9123 45.8011C12.0397 45.9285 12.2124 46.0001 12.3926 46.0001H33.6114C33.7915 46.0001 33.9643 45.9285 34.0917 45.8011C34.2191 45.6737 34.2907 45.501 34.2907 45.3208V39.1337H42.9919C43.7894 39.1327 44.554 38.8155 45.118 38.2516C45.6819 37.6876 45.9992 36.923 46.0001 36.1255V17.6067C45.9992 16.8091 45.6819 16.0445 45.118 15.4806C44.554 14.9166 43.7894 14.5994 42.9919 14.5985ZM37.7751 5.82621V14.5985H34.2895V5.82621H37.7751ZM13.073 1.36244H32.931V14.5985H13.073V1.36244ZM8.22888 5.82621H11.7145V14.5985H8.22888V5.82621ZM8.22888 37.7751V30.8621H11.7133V37.7751H8.22888ZM13.0719 44.6415V30.8621H32.9321C32.9321 30.8621 32.9321 38.4505 32.9321 38.4544C32.9321 38.4583 32.9321 44.6415 32.9321 44.6415H13.0719ZM34.2907 37.7751V30.8621H37.7751V37.7751H34.2907ZM44.6415 36.1255C44.641 36.5628 44.4671 36.9821 44.1578 37.2914C43.8486 37.6006 43.4293 37.7746 42.9919 37.7751H39.1337V30.1828C39.1335 30.0027 39.0619 29.83 38.9346 29.7026C38.8072 29.5753 38.6345 29.5037 38.4544 29.5036H7.54961C7.36949 29.5037 7.19677 29.5753 7.06941 29.7026C6.94204 29.83 6.87044 30.0027 6.87034 30.1828V37.7751H3.0121C2.57474 37.7746 2.15544 37.6006 1.84618 37.2914C1.53692 36.9821 1.36296 36.5628 1.36244 36.1255V17.6067C1.36296 17.1693 1.53692 16.75 1.84618 16.4408C2.15544 16.1315 2.57474 15.9575 3.0121 15.957H42.9919C43.4293 15.9575 43.8486 16.1315 44.1578 16.4408C44.4671 16.75 44.641 17.1693 44.6415 17.6067V36.1255Z" fill="currentColor"/>
    <path d="M13.8163 19.2548H4.17732C3.99716 19.2548 3.82439 19.3264 3.697 19.4538C3.56961 19.5812 3.49805 19.7539 3.49805 19.9341C3.49805 20.1142 3.56961 20.287 3.697 20.4144C3.82439 20.5418 3.99716 20.6134 4.17732 20.6134H13.8163C13.9965 20.6134 14.1693 20.5418 14.2966 20.4144C14.424 20.287 14.4956 20.1142 14.4956 19.9341C14.4956 19.7539 14.424 19.5812 14.2966 19.4538C14.1693 19.3264 13.9965 19.2548 13.8163 19.2548Z" fill="currentColor"/>
    <path d="M28.8239 32.8028H17.1793C16.9991 32.8028 16.8263 32.8744 16.699 33.0017C16.5716 33.1291 16.5 33.3019 16.5 33.4821C16.5 33.6622 16.5716 33.835 16.699 33.9624C16.8263 34.0898 16.9991 34.1613 17.1793 34.1613H28.8239C29.004 34.1613 29.1768 34.0898 29.3042 33.9624C29.4316 33.835 29.5031 33.6622 29.5031 33.4821C29.5031 33.3019 29.4316 33.1291 29.3042 33.0017C29.1768 32.8744 29.004 32.8028 28.8239 32.8028Z" fill="currentColor"/>
    <path d="M28.8239 36.2962H17.1793C16.9991 36.2962 16.8263 36.3678 16.699 36.4952C16.5716 36.6226 16.5 36.7953 16.5 36.9755C16.5 37.1557 16.5716 37.3284 16.699 37.4558C16.8263 37.5832 16.9991 37.6548 17.1793 37.6548H28.8239C29.004 37.6548 29.1768 37.5832 29.3042 37.4558C29.4316 37.3284 29.5031 37.1557 29.5031 36.9755C29.5031 36.7953 29.4316 36.6226 29.3042 36.4952C29.1768 36.3678 29.004 36.2962 28.8239 36.2962Z" fill="currentColor"/>
    <path d="M28.8239 39.7897H17.1793C16.9991 39.7897 16.8263 39.8612 16.699 39.9886C16.5716 40.116 16.5 40.2888 16.5 40.4689C16.5 40.6491 16.5716 40.8219 16.699 40.9493C16.8263 41.0766 16.9991 41.1482 17.1793 41.1482H28.8239C29.004 41.1482 29.1768 41.0766 29.3042 40.9493C29.4316 40.8219 29.5031 40.6491 29.5031 40.4689C29.5031 40.2888 29.4316 40.116 29.3042 39.9886C29.1768 39.8612 29.004 39.7897 28.8239 39.7897Z" fill="currentColor"/>
    <path d="M40.6621 18.0903C40.2974 18.0903 39.941 18.1984 39.6378 18.401C39.3346 18.6036 39.0983 18.8915 38.9587 19.2284C38.8192 19.5653 38.7826 19.936 38.8538 20.2937C38.9249 20.6513 39.1005 20.9799 39.3584 21.2377C39.6162 21.4956 39.9447 21.6712 40.3024 21.7423C40.66 21.8134 41.0308 21.7769 41.3677 21.6374C41.7046 21.4978 41.9925 21.2615 42.1951 20.9583C42.3977 20.6551 42.5058 20.2987 42.5058 19.934C42.5052 19.4452 42.3108 18.9766 41.9651 18.631C41.6195 18.2853 41.1509 18.0909 40.6621 18.0903ZM40.6621 20.4192C40.5661 20.4192 40.4723 20.3907 40.3925 20.3374C40.3127 20.2841 40.2506 20.2083 40.2138 20.1197C40.1771 20.031 40.1675 19.9335 40.1862 19.8393C40.2049 19.7452 40.2512 19.6588 40.319 19.5909C40.3869 19.5231 40.4733 19.4769 40.5674 19.4581C40.6615 19.4394 40.7591 19.449 40.8478 19.4857C40.9364 19.5225 41.0122 19.5847 41.0655 19.6644C41.1188 19.7442 41.1473 19.838 41.1473 19.934C41.1472 20.0626 41.096 20.186 41.0051 20.277C40.9141 20.3679 40.7907 20.4191 40.6621 20.4192Z" fill="currentColor"/>
    <path d="M36.0527 18.0903C35.6881 18.0903 35.3316 18.1984 35.0284 18.401C34.7252 18.6036 34.4889 18.8915 34.3493 19.2284C34.2098 19.5653 34.1733 19.936 34.2444 20.2937C34.3156 20.6513 34.4912 20.9799 34.749 21.2377C35.0069 21.4956 35.3354 21.6712 35.693 21.7423C36.0507 21.8134 36.4214 21.7769 36.7583 21.6374C37.0952 21.4978 37.3831 21.2615 37.5857 20.9583C37.7883 20.6551 37.8964 20.2987 37.8964 19.934C37.8958 19.4452 37.7014 18.9766 37.3557 18.631C37.0101 18.2853 36.5415 18.0909 36.0527 18.0903ZM36.0527 20.4192C35.9568 20.4192 35.8629 20.3907 35.7832 20.3374C35.7034 20.2841 35.6412 20.2083 35.6045 20.1197C35.5677 20.031 35.5581 19.9335 35.5768 19.8393C35.5956 19.7452 35.6418 19.6588 35.7096 19.5909C35.7775 19.5231 35.8639 19.4769 35.9581 19.4581C36.0522 19.4394 36.1497 19.449 36.2384 19.4857C36.327 19.5225 36.4028 19.5847 36.4561 19.6644C36.5094 19.7442 36.5379 19.838 36.5379 19.934C36.5378 20.0626 36.4867 20.186 36.3957 20.277C36.3047 20.3679 36.1814 20.4191 36.0527 20.4192Z" fill="currentColor"/>
    <path d="M31.4453 18.0903C31.0807 18.0903 30.7243 18.1984 30.4211 18.4009C30.118 18.6034 29.8816 18.8913 29.7421 19.2281C29.6025 19.5649 29.5659 19.9355 29.6369 20.2931C29.7079 20.6507 29.8833 20.9793 30.141 21.2372C30.3987 21.4951 30.7271 21.6708 31.0846 21.7421C31.4422 21.8134 31.8129 21.7771 32.1498 21.6378C32.4867 21.4985 32.7748 21.2624 32.9775 20.9595C33.1803 20.6565 33.2887 20.3001 33.289 19.9356C33.2888 19.4465 33.0945 18.9775 32.7489 18.6315C32.4032 18.2855 31.9344 18.0909 31.4453 18.0903ZM31.4453 20.4192C31.3493 20.4192 31.2554 20.3907 31.1756 20.3373C31.0957 20.2839 31.0336 20.2081 30.9969 20.1193C30.9602 20.0306 30.9507 19.9329 30.9695 19.8388C30.9884 19.7446 31.0348 19.6582 31.1028 19.5904C31.1708 19.5226 31.2574 19.4765 31.3516 19.4579C31.4458 19.4394 31.5434 19.4492 31.632 19.4862C31.7207 19.5231 31.7963 19.5856 31.8495 19.6656C31.9026 19.7456 31.9308 19.8395 31.9305 19.9356C31.93 20.0639 31.8786 20.1869 31.7877 20.2775C31.6968 20.3682 31.5737 20.4191 31.4453 20.4192Z" fill="currentColor"/>
  </symbol>
  <symbol id="projector" viewBox="0 0 52 39">
    <path d="M49.1153 17.4846H31.3888V16.2479C31.3878 15.5543 31.1374 14.8842 30.6833 14.3599C30.2292 13.8356 29.6017 13.4921 28.9154 13.3921V9.23974H32.2133C32.432 9.23974 32.6417 9.15288 32.7963 8.99826C32.9509 8.84363 33.0378 8.63392 33.0378 8.41525V5.94179H34.6868C34.9054 5.94179 35.1152 5.85493 35.2698 5.70031C35.4244 5.54569 35.5113 5.33597 35.5113 5.11731V2.64385H39.6337C39.8524 2.64385 40.0621 2.55698 40.2167 2.40236C40.3713 2.24774 40.4582 2.03803 40.4582 1.81936C40.4582 1.60069 40.3713 1.39098 40.2167 1.23636C40.0621 1.08174 39.8524 0.994873 39.6337 0.994873H9.95217C9.7335 0.994873 9.52379 1.08174 9.36917 1.23636C9.21455 1.39098 9.12768 1.60069 9.12768 1.81936C9.12768 2.03803 9.21455 2.24774 9.36917 2.40236C9.52379 2.55698 9.7335 2.64385 9.95217 2.64385H17.3726V5.11731C17.3726 5.33597 17.4594 5.54569 17.614 5.70031C17.7687 5.85493 17.9784 5.94179 18.197 5.94179H19.846V8.41525C19.846 8.63392 19.9329 8.84363 20.0875 8.99826C20.2421 9.15288 20.4518 9.23974 20.6705 9.23974H23.9684V13.3921C23.2821 13.4921 22.6546 13.8356 22.2005 14.3599C21.7464 14.8842 21.496 15.5543 21.495 16.2479V17.4846H19.5368C17.9181 16.4093 16.018 15.8356 14.0746 15.8356C12.1312 15.8356 10.2311 16.4093 8.61238 17.4846H3.76852C3.00344 17.4855 2.26994 17.7898 1.72895 18.3307C1.18796 18.8717 0.883658 19.6052 0.882812 20.3703V31.0886C0.883658 31.8537 1.18796 32.5872 1.72895 33.1282C2.26994 33.6692 3.00344 33.9735 3.76852 33.9743H4.18076V35.2111C4.18161 35.9762 4.48591 36.7097 5.0269 37.2506C5.56789 37.7916 6.30139 38.0959 7.06646 38.0968H45.8173C46.5824 38.0959 47.3159 37.7916 47.8569 37.2506C48.3979 36.7097 48.7022 35.9762 48.7031 35.2111V33.9743H49.1153C49.8804 33.9735 50.6139 33.6692 51.1549 33.1282C51.6959 32.5872 52.0002 31.8537 52.001 31.0886V20.3703C52.0002 19.6052 51.6959 18.8717 51.1549 18.3307C50.6139 17.7898 49.8804 17.4855 49.1153 17.4846ZM19.0215 4.29282V2.64385H33.8623V4.29282H19.0215ZM21.495 7.59077V5.94179H31.3888V7.59077H21.495ZM27.2664 9.23974V13.3622H25.6174V9.23974H27.2664ZM23.144 16.2479C23.1442 15.92 23.2746 15.6056 23.5065 15.3737C23.7384 15.1418 24.0528 15.0114 24.3807 15.0111H28.5031C28.831 15.0114 29.1455 15.1418 29.3773 15.3737C29.6092 15.6056 29.7396 15.92 29.7399 16.2479V17.4846H23.144V16.2479ZM14.0746 17.4846C15.7053 17.4846 17.2993 17.9682 18.6552 18.8741C20.0111 19.7801 21.0678 21.0678 21.6919 22.5743C22.3159 24.0809 22.4792 25.7386 22.1611 27.338C21.8429 28.9373 21.0577 30.4064 19.9046 31.5595C18.7515 32.7125 17.2824 33.4978 15.6831 33.8159C14.0837 34.1341 12.426 33.9708 10.9194 33.3467C9.41288 32.7227 8.1252 31.6659 7.21924 30.3101C6.31329 28.9542 5.82973 27.3602 5.82973 25.7295C5.83227 23.5436 6.70174 21.4479 8.2474 19.9023C9.79307 18.3566 11.8887 17.4871 14.0746 17.4846ZM3.76852 32.3254C3.4406 32.3251 3.12619 32.1947 2.89432 31.9628C2.66244 31.731 2.53206 31.4166 2.53179 31.0886V20.3703C2.53206 20.0424 2.66244 19.728 2.89432 19.4961C3.12619 19.2642 3.4406 19.1339 3.76852 19.1336H6.70678C5.08037 20.9456 4.18077 23.2946 4.18077 25.7295C4.18077 28.1643 5.08037 30.5134 6.70678 32.3254H3.76852ZM47.0541 35.2111C47.0538 35.539 46.9234 35.8534 46.6915 36.0853C46.4597 36.3172 46.1453 36.4475 45.8173 36.4478H7.06646C6.73855 36.4475 6.42414 36.3172 6.19227 36.0853C5.96039 35.8534 5.83001 35.539 5.82973 35.2111V33.9743H8.61238C10.2311 35.0497 12.1312 35.6233 14.0746 35.6233C16.018 35.6233 17.9181 35.0497 19.5368 33.9743H47.0541V35.2111ZM50.352 31.0886C50.3518 31.4166 50.2214 31.731 49.9895 31.9628C49.7576 32.1947 49.4432 32.3251 49.1153 32.3254H21.4424C23.0688 30.5134 23.9684 28.1643 23.9684 25.7295C23.9684 23.2946 23.0688 20.9456 21.4424 19.1336H49.1153C49.4432 19.1339 49.7576 19.2642 49.9895 19.4961C50.2214 19.728 50.3518 20.0424 50.352 20.3703V31.0886Z" fill="currentColor"/>
    <path d="M14.0744 32.3254C15.379 32.3254 16.6542 31.9385 17.7389 31.2138C18.8236 30.489 19.669 29.4589 20.1682 28.2536C20.6675 27.0484 20.7981 25.7222 20.5436 24.4427C20.2891 23.1632 19.6609 21.9879 18.7384 21.0655C17.816 20.143 16.6407 19.5148 15.3612 19.2603C14.0817 19.0058 12.7555 19.1364 11.5503 19.6357C10.345 20.1349 9.31489 20.9803 8.59012 22.065C7.86536 23.1497 7.47852 24.4249 7.47852 25.7295C7.48048 27.4782 8.17603 29.1548 9.41258 30.3913C10.6491 31.6279 12.3257 32.3234 14.0744 32.3254ZM14.0744 20.7826C15.0528 20.7826 16.0093 21.0727 16.8228 21.6163C17.6363 22.1598 18.2703 22.9324 18.6448 23.8364C19.0192 24.7403 19.1172 25.735 18.9263 26.6946C18.7354 27.6542 18.2643 28.5356 17.5724 29.2275C16.8806 29.9193 15.9991 30.3905 15.0395 30.5813C14.0799 30.7722 13.0852 30.6743 12.1813 30.2998C11.2774 29.9254 10.5048 29.2914 9.9612 28.4778C9.41762 27.6643 9.12749 26.7079 9.12749 25.7295C9.12896 24.4179 9.65063 23.1605 10.578 22.2331C11.5054 21.3057 12.7629 20.784 14.0744 20.7826Z" fill="currentColor"/>
    <path d="M47.8788 21.6071H42.9319C42.7132 21.6071 42.5035 21.694 42.3489 21.8486C42.1943 22.0032 42.1074 22.2129 42.1074 22.4316V29.0275C42.1074 29.2462 42.1943 29.4559 42.3489 29.6105C42.5035 29.7651 42.7132 29.852 42.9319 29.852H47.8788C48.0975 29.852 48.3072 29.7651 48.4618 29.6105C48.6165 29.4559 48.7033 29.2462 48.7033 29.0275V22.4316C48.7033 22.2129 48.6165 22.0032 48.4618 21.8486C48.3072 21.694 48.0975 21.6071 47.8788 21.6071ZM47.0543 28.203H43.7564V23.2561H47.0543V28.203Z" fill="currentColor"/>
    <path d="M40.458 21.6071H32.2132C31.9945 21.6071 31.7848 21.694 31.6302 21.8486C31.4755 22.0032 31.3887 22.2129 31.3887 22.4316C31.3887 22.6503 31.4755 22.86 31.6302 23.0146C31.7848 23.1692 31.9945 23.2561 32.2132 23.2561H40.458C40.6767 23.2561 40.8864 23.1692 41.041 23.0146C41.1957 22.86 41.2825 22.6503 41.2825 22.4316C41.2825 22.2129 41.1957 22.0032 41.041 21.8486C40.8864 21.694 40.6767 21.6071 40.458 21.6071Z" fill="currentColor"/>
    <path d="M40.458 24.905H32.2132C31.9945 24.905 31.7848 24.9918 31.6302 25.1465C31.4755 25.3011 31.3887 25.5108 31.3887 25.7295C31.3887 25.9481 31.4755 26.1578 31.6302 26.3125C31.7848 26.4671 31.9945 26.5539 32.2132 26.5539H40.458C40.6767 26.5539 40.8864 26.4671 41.041 26.3125C41.1957 26.1578 41.2825 25.9481 41.2825 25.7295C41.2825 25.5108 41.1957 25.3011 41.041 25.1465C40.8864 24.9918 40.6767 24.905 40.458 24.905Z" fill="currentColor"/>
    <path d="M40.458 28.2029H32.2132C31.9945 28.2029 31.7848 28.2898 31.6302 28.4444C31.4755 28.599 31.3887 28.8087 31.3887 29.0274C31.3887 29.2461 31.4755 29.4558 31.6302 29.6104C31.7848 29.765 31.9945 29.8519 32.2132 29.8519H40.458C40.6767 29.8519 40.8864 29.765 41.041 29.6104C41.1957 29.4558 41.2825 29.2461 41.2825 29.0274C41.2825 28.8087 41.1957 28.599 41.041 28.4444C40.8864 28.2898 40.6767 28.2029 40.458 28.2029Z" fill="currentColor"/>
    <path d="M42.1077 2.64385H42.9322C43.1508 2.64385 43.3606 2.55698 43.5152 2.40236C43.6698 2.24774 43.7567 2.03803 43.7567 1.81936C43.7567 1.60069 43.6698 1.39098 43.5152 1.23636C43.3606 1.08174 43.1508 0.994873 42.9322 0.994873H42.1077C41.889 0.994873 41.6793 1.08174 41.5247 1.23636C41.3701 1.39098 41.2832 1.60069 41.2832 1.81936C41.2832 2.03803 41.3701 2.24774 41.5247 2.40236C41.6793 2.55698 41.889 2.64385 42.1077 2.64385Z" fill="currentColor"/>
  </symbol>
  <symbol id="tablet" viewBox="0 0 37 49">
    <path d="M32.8831 0.474487H4.36704C2.0969 0.474487 0.25 2.32138 0.25 4.59153V7.06744C0.25 7.45589 0.564928 7.77082 0.953383 7.77082C1.34184 7.77082 1.65677 7.45589 1.65677 7.06744V4.59153C1.65677 3.09707 2.87259 1.88125 4.36704 1.88125H32.8831C34.3776 1.88125 35.5934 3.09707 35.5934 4.59153V44.3833C35.5934 45.8778 34.3776 47.0936 32.8831 47.0936H4.36704C2.87259 47.0936 1.65677 45.8778 1.65677 44.3833V9.88097C1.65677 9.49252 1.34184 9.17759 0.953383 9.17759C0.564928 9.17759 0.25 9.49252 0.25 9.88097V44.3833C0.25 46.6535 2.0969 48.5004 4.36704 48.5004H32.8831C35.1533 48.5004 37.0002 46.6535 37.0002 44.3833V4.59153C37.0002 2.32138 35.1533 0.474487 32.8831 0.474487Z" fill="currentColor"/>
    <path d="M3.05078 6.2364V32.8128C3.05078 33.2013 3.36571 33.5162 3.75416 33.5162C4.14262 33.5162 4.45755 33.2013 4.45755 32.8128V6.93979H32.7926V16.5859C32.7926 16.9743 33.1076 17.2893 33.496 17.2893C33.8845 17.2893 34.1994 16.9743 34.1994 16.5859V6.2364C34.1994 5.84795 33.8845 5.53302 33.496 5.53302H3.75416C3.36562 5.53302 3.05078 5.84795 3.05078 6.2364Z" fill="currentColor"/>
    <path d="M3.05078 40.9913C3.05078 41.3797 3.36571 41.6946 3.75416 41.6946H33.496C33.8845 41.6946 34.1994 41.3797 34.1994 40.9913V19.3995C34.1994 19.011 33.8845 18.6961 33.496 18.6961C33.1076 18.6961 32.7926 19.011 32.7926 19.3995V40.2879H4.45755V35.6265C4.45755 35.2381 4.14262 34.9231 3.75416 34.9231C3.36571 34.9231 3.05078 35.2381 3.05078 35.6265V40.9913Z" fill="currentColor"/>
    <path d="M16.4824 44.2277C16.4824 45.4092 17.4436 46.3704 18.6252 46.3704C19.8068 46.3704 20.768 45.4092 20.768 44.2277C20.768 43.0462 19.8067 42.0849 18.6252 42.0849C17.4436 42.0849 16.4824 43.0462 16.4824 44.2277ZM19.3612 44.2277C19.3612 44.6336 19.031 44.9637 18.6252 44.9637C18.2193 44.9637 17.8892 44.6336 17.8892 44.2277C17.8892 43.8218 18.2193 43.4916 18.6252 43.4916C19.031 43.4916 19.3612 43.8218 19.3612 44.2277Z" fill="currentColor"/>
    <path d="M21.6632 4.3963C22.0517 4.3963 22.3666 4.08137 22.3666 3.69292C22.3666 3.30446 22.0517 2.98953 21.6632 2.98953H18.4573C18.0688 2.98953 17.7539 3.30446 17.7539 3.69292C17.7539 4.08137 18.0688 4.3963 18.4573 4.3963H21.6632Z" fill="currentColor"/>
    <path d="M15.7737 4.39328C16.1622 4.39328 16.4771 4.07836 16.4771 3.68989C16.4771 3.30143 16.1622 2.98651 15.7737 2.98651C15.3852 2.98651 15.0703 3.30143 15.0703 3.68989C15.0703 4.07836 15.3852 4.39328 15.7737 4.39328Z" fill="currentColor"/>
  </symbol>
  <symbol id="trimm" viewBox="0 0 42 42">
    <path d="M41.7966 12.5603C41.5258 12.2896 41.0869 12.2895 40.816 12.5603L39.5084 13.8679L38.8081 13.1676L40.1157 11.86C40.3865 11.5892 40.3865 11.1501 40.1157 10.8794C39.8449 10.6087 39.4059 10.6086 39.1351 10.8794L37.8274 12.1869L37.1271 11.4866L38.4348 10.1789C38.7056 9.90814 38.7056 9.46917 38.4348 9.19838C38.164 8.92768 37.725 8.92758 37.4541 9.19838L36.1466 10.5059L35.4462 9.80561L36.7539 8.49795C37.0247 8.22716 37.0247 7.78819 36.7539 7.5174C36.4831 7.2467 36.0441 7.2466 35.7732 7.5174L34.4657 8.82496L33.7653 8.12463L35.073 6.81698C35.3438 6.54618 35.3438 6.10722 35.073 5.83642C34.8022 5.56572 34.3632 5.56563 34.0924 5.83642L32.7848 7.14398L32.0845 6.44365L33.392 5.136C33.6628 4.86521 33.6628 4.42615 33.3919 4.15535C33.1212 3.88456 32.6822 3.88465 32.4114 4.15535L31.1038 5.46291L30.4035 4.76258L31.711 3.45502C31.9818 3.18423 31.9818 2.74517 31.711 2.47438C31.4402 2.20358 31.0012 2.20358 30.7304 2.47438L29.4228 3.78194L28.7225 3.08161L30.0301 1.77395C30.3009 1.50316 30.3009 1.0641 30.03 0.793306C29.7593 0.522511 29.3202 0.522511 29.0494 0.793306L27.5195 2.32322C27.303 2.33699 27.0902 2.42565 26.9247 2.59114L3.29317 26.2229C-0.0907875 29.6069 -0.297697 34.983 2.67198 38.6108L0.977135 40.3056C0.616107 40.6666 0.616107 41.252 0.977135 41.6131C1.1577 41.7936 1.39428 41.8839 1.63087 41.8839C1.86746 41.8839 2.10404 41.7935 2.2846 41.6131L3.97945 39.9182C5.67513 41.3063 7.75263 42.0005 9.83023 42.0005C12.1976 42.0005 14.5651 41.0994 16.3674 39.2971L39.9986 15.6657C40.1642 15.5002 40.2528 15.2875 40.2665 15.0709L41.7965 13.5409C42.0673 13.2702 42.0673 12.8311 41.7966 12.5603ZM15.0599 37.9897C12.1764 40.8733 7.48424 40.8733 4.60064 37.9897C3.20377 36.5928 2.43438 34.7355 2.43438 32.7601C2.43438 30.7845 3.20368 28.9273 4.60064 27.5305L25.2251 6.90592L27.1044 8.78521L21.6786 14.211C21.5053 14.3843 21.4078 14.6195 21.4078 14.8647C21.4078 15.1099 21.5053 15.3451 21.6786 15.5185L27.0718 20.9115C27.2523 21.0921 27.4889 21.1823 27.7255 21.1823C27.9621 21.1823 28.1987 21.0921 28.3792 20.9115L33.8049 15.4858L35.6842 17.3652L15.0599 37.9897ZM32.4974 14.1783L30.6868 15.989L26.6012 11.9034L28.4119 10.0927L32.4974 14.1783ZM24.1497 14.3548L28.2353 18.4404L27.7255 18.9502L23.6399 14.8646L24.1497 14.3548ZM29.216 17.4599L25.1304 13.3743L25.6206 12.8841L29.7062 16.9698L29.216 17.4599ZM36.9918 16.0576L26.5326 5.59845L27.5782 4.55281L38.0374 15.012L36.9918 16.0576Z" fill="currentColor"/>
    <path d="M19.6351 19.9146L14.9089 24.6408C14.5029 25.0468 14.2793 25.5865 14.2793 26.1606C14.2793 26.7348 14.5029 27.2746 14.9089 27.6805C15.315 28.0865 15.8546 28.3102 16.4287 28.3102C17.003 28.3102 17.5427 28.0866 17.9487 27.6805L22.6749 22.9544C23.0809 22.5484 23.3045 22.0087 23.3045 21.4344C23.3045 20.8603 23.0809 20.3206 22.6749 19.9146C21.837 19.0767 20.4735 19.0764 19.6351 19.9146ZM16.9681 26.7001C16.671 26.9974 16.187 26.9975 15.8896 26.7001C15.5922 26.4027 15.5922 25.9189 15.8896 25.6215L19.194 22.3172L20.2726 23.3957L16.9681 26.7001ZM21.6944 21.9738L21.2532 22.415L20.1746 21.3364L20.6157 20.8952C20.7645 20.7465 20.9598 20.6722 21.1551 20.6722C21.3504 20.6722 21.5458 20.7465 21.6944 20.8952C21.9918 21.1926 21.9918 21.6765 21.6944 21.9738Z" fill="currentColor"/>
  </symbol>
  <symbol id="water-heat" viewBox="0 0 32 48">
    <path d="M16.2884 21.2724C19.7594 21.2724 22.573 18.4585 22.573 14.9875C22.573 11.5169 19.7594 8.703 16.2884 8.703C12.8175 8.703 10.0039 11.5169 10.0039 14.9875C10.0079 18.457 12.8193 21.2685 16.2884 21.2724ZM16.2884 10.2741C18.8916 10.2741 21.0018 12.3843 21.0018 14.9875C21.0018 17.5907 18.8916 19.7013 16.2884 19.7013C13.6852 19.7013 11.575 17.5907 11.575 14.9875C11.5779 12.3858 13.6863 10.277 16.2884 10.2741Z" fill="currentColor"/>
    <path d="M16.2867 15.7732C16.5496 15.7736 16.7952 15.6423 16.9412 15.4233L18.5123 13.0668C18.6709 12.8331 18.6921 12.5324 18.5677 12.2789C18.4436 12.0254 18.1926 11.8582 17.9107 11.8409C17.6288 11.8236 17.3594 11.9588 17.2051 12.1951L15.634 14.552C15.4733 14.7929 15.4582 15.1025 15.5948 15.3579C15.7311 15.6132 15.9972 15.7729 16.2867 15.7732Z" fill="currentColor"/>
    <path d="M20.2159 47.982H23.3581C24.2255 47.9809 24.9285 47.2782 24.9293 46.4109V44.3165C26.6522 44.1133 28.3732 43.8699 30.0889 43.5455C31.2001 43.3312 32.0021 42.3577 31.9995 41.226V4.46103C32.0021 3.32934 31.2001 2.35588 30.0893 2.14191C28.4229 1.82617 26.7518 1.58847 25.0785 1.38781C25.03 1.37271 24.98 1.36264 24.9293 1.35796C24.9152 1.35796 24.9037 1.36515 24.8901 1.36587C19.1748 0.694123 13.4002 0.694123 7.68493 1.36587C7.67163 1.36479 7.66012 1.35796 7.64645 1.35796C7.59683 1.36264 7.54792 1.37271 7.50045 1.38745C5.82611 1.58811 4.15393 1.82581 2.48678 2.14155C1.37559 2.35552 0.57366 3.32934 0.576178 4.46103V41.226C0.57366 42.3574 1.37559 43.3308 2.48642 43.5451C4.20212 43.8699 5.92356 44.1133 7.64645 44.3161V46.4109C7.64753 47.2782 8.35021 47.9809 9.21758 47.982H12.3598C13.2272 47.9809 13.9303 47.2782 13.931 46.4109V44.7894C14.7167 44.8146 15.5025 44.8444 16.2879 44.8444C17.0736 44.8444 17.859 44.8142 18.6447 44.7894V46.4109C18.6455 47.2782 19.3485 47.9809 20.2159 47.982ZM23.3581 46.4109H20.2159V44.7308C21.2638 44.6747 22.3113 44.6024 23.3581 44.5017V46.4109ZM16.2879 2.41305C18.9126 2.41917 21.5353 2.56805 24.1435 2.85933V14.9875C24.1435 19.3262 20.6265 22.8435 16.2879 22.8435C11.9492 22.8435 8.4322 19.3262 8.4322 14.9875V2.85933C11.0408 2.56805 13.6631 2.41917 16.2879 2.41305ZM12.3598 46.4109H9.21758V44.5017C10.2644 44.6024 11.3119 44.6747 12.3598 44.7308V46.4109ZM13.1553 43.1999L13.1456 43.1978L13.1377 43.1992C9.66026 43.0482 6.19831 42.6479 2.77842 42.0017C2.40911 41.928 2.14443 41.6025 2.14731 41.226V4.46103C2.14443 4.08416 2.40947 3.75871 2.77878 3.68535C4.13667 3.42859 5.49815 3.22361 6.86107 3.04453V14.9875C6.86107 20.1939 11.0814 24.4147 16.2879 24.4147C21.4943 24.4147 25.7147 20.1939 25.7147 14.9875V3.04417C27.0776 3.22361 28.4394 3.42823 29.7973 3.68499C30.1666 3.75871 30.4316 4.08416 30.4284 4.46103V41.226C30.4313 41.6025 30.1666 41.928 29.7973 42.0017H29.7969C26.3771 42.6479 22.9151 43.0482 19.438 43.1996L19.4301 43.1978L19.4204 43.1996C17.3325 43.2905 15.2443 43.2905 13.1553 43.1999Z" fill="currentColor"/>
    <path d="M21.7873 31.4849V28.3423C21.7863 27.4749 21.0836 26.7722 20.2162 26.7711H12.3602C11.4928 26.7722 10.7901 27.4749 10.7891 28.3423V31.4849C10.7901 32.3523 11.4928 33.0549 12.3602 33.056H20.2162C21.0836 33.0549 21.7863 32.3523 21.7873 31.4849ZM12.3602 28.3423H20.2162L20.2173 31.4849H12.3602V28.3423Z" fill="currentColor"/>
    <path d="M4.50414 25.2C4.07045 25.2 3.71875 25.5517 3.71875 25.9858V26.7711C3.71875 27.2052 4.07045 27.5569 4.50414 27.5569C4.93818 27.5569 5.28988 27.2052 5.28988 26.7711V25.9858C5.28988 25.5517 4.93818 25.2 4.50414 25.2Z" fill="currentColor"/>
    <path d="M4.50414 29.128C4.07045 29.128 3.71875 29.4797 3.71875 29.9137V39.3405C3.71875 39.7742 4.07045 40.1259 4.50414 40.1259C4.93818 40.1259 5.28988 39.7742 5.28988 39.3405V29.9137C5.28988 29.4797 4.93818 29.128 4.50414 29.128Z" fill="currentColor"/>
    <path d="M11.5756 34.6272H10.0045C9.57045 34.6272 9.21875 34.9789 9.21875 35.4126C9.21875 35.8466 9.57045 36.1983 10.0045 36.1983H11.5756C12.0093 36.1983 12.361 35.8466 12.361 35.4126C12.361 34.9789 12.0093 34.6272 11.5756 34.6272Z" fill="currentColor"/>
    <path d="M11.5756 37.7695H10.0045C9.57045 37.7695 9.21875 38.1212 9.21875 38.5549C9.21875 38.989 9.57045 39.3407 10.0045 39.3407H11.5756C12.0093 39.3407 12.361 38.989 12.361 38.5549C12.361 38.1212 12.0093 37.7695 11.5756 37.7695Z" fill="currentColor"/>
    <path d="M20.2148 35.4126C20.2148 35.8466 20.5665 36.1983 21.0002 36.1983H22.5714C23.0054 36.1983 23.3571 35.8466 23.3571 35.4126C23.3571 34.9789 23.0054 34.6272 22.5714 34.6272H21.0002C20.5665 34.6272 20.2148 34.9789 20.2148 35.4126Z" fill="currentColor"/>
    <path d="M22.5714 37.7695H21.0002C20.5665 37.7695 20.2148 38.1212 20.2148 38.5549C20.2148 38.989 20.5665 39.3407 21.0002 39.3407H22.5714C23.0054 39.3407 23.3571 38.989 23.3571 38.5549C23.3571 38.1212 23.0054 37.7695 22.5714 37.7695Z" fill="currentColor"/>
  </symbol>
  <symbol id="arrow-prev" viewBox="0 0 13 20">
    <path d="M13 17.642L4.96156 10.0004L13 2.35873L10.5193 0.000366103L5.1656e-07 10.0004L10.5193 20.0004L13 17.642Z" fill="currentColor"/>
  </symbol>
  <symbol id="arrow-next" viewBox="0 0 13 20">
    <path d="M7.71141e-07 17.642L8.03844 10.0004L1.03087e-07 2.35873L2.48074 0.000366103L13 10.0004L2.48074 20.0004L7.71141e-07 17.642Z" fill="currentColor"/>
  </symbol>
  <symbol id="show-more-arrow" viewBox="0 0 12 8">
    <path d="M10.585 0L6 4.94673L1.41502 0L0 1.52661L6 8L12 1.52661L10.585 0Z" fill="currentColor"/>
  </symbol>
  <symbol id="nav-delivery" viewBox="0 0 24 17">
    <path d="M17.7216 10.5628C16.1412 10.5628 14.8555 11.8485 14.8555 13.4289C14.8555 15.0093 16.1412 16.295 17.7216 16.295C19.3022 16.295 20.5876 15.0093 20.5876 13.4289C20.5876 11.8485 19.302 10.5628 17.7216 10.5628ZM17.7216 14.862C16.9312 14.862 16.2885 14.2192 16.2885 13.4289C16.2885 12.6386 16.9312 11.9959 17.7216 11.9959C18.5119 11.9959 19.1546 12.6386 19.1546 13.4289C19.1546 14.2193 18.5119 14.862 17.7216 14.862Z" fill="currentColor"/>
    <path d="M7.92859 10.5628C6.34819 10.5628 5.0625 11.8485 5.0625 13.4289C5.0625 15.0093 6.34819 16.295 7.92859 16.295C9.50899 16.295 10.7947 15.0093 10.7947 13.4289C10.7947 11.8485 9.50899 10.5628 7.92859 10.5628ZM7.92859 14.862C7.13828 14.862 6.49554 14.2192 6.49554 13.4289C6.49554 12.6386 7.13828 11.9959 7.92859 11.9959C8.71868 11.9959 9.36163 12.6386 9.36163 13.4289C9.36163 14.2193 8.7189 14.862 7.92859 14.862Z" fill="currentColor"/>
    <path d="M19.6523 2.35917C19.5305 2.11723 19.2828 1.96459 19.012 1.96459H15.2383V3.39764H18.5701L20.5212 7.2783L21.8018 6.63437L19.6523 2.35917Z" fill="currentColor"/>
    <path d="M15.5721 12.7363H10.1504V14.1693H15.5721V12.7363Z" fill="currentColor"/>
    <path d="M5.77853 12.7363H3.29463C2.89885 12.7363 2.57812 13.0571 2.57812 13.4528C2.57812 13.8486 2.89889 14.1693 3.29463 14.1693H5.77857C6.17435 14.1693 6.49507 13.8485 6.49507 13.4528C6.49507 13.057 6.1743 12.7363 5.77853 12.7363Z" fill="currentColor"/>
    <path d="M23.1351 8.35595L21.7257 6.54076C21.5903 6.36592 21.3813 6.26369 21.1599 6.26369H15.9532V1.24806C15.9532 0.852279 15.6324 0.531555 15.2367 0.531555H3.29463C2.89885 0.531555 2.57812 0.852324 2.57812 1.24806C2.57812 1.64379 2.89889 1.96456 3.29463 1.96456H14.5201V6.98019C14.5201 7.37597 14.8409 7.69669 15.2366 7.69669H20.809L21.8525 9.04087V12.7362H19.8701C19.4743 12.7362 19.1536 13.057 19.1536 13.4527C19.1536 13.8485 19.4744 14.1692 19.8701 14.1692H22.569C22.9648 14.1692 23.2855 13.8485 23.2855 13.4527V8.79542C23.2855 8.63635 23.2325 8.48158 23.1351 8.35595Z" fill="currentColor"/>
    <path d="M5.73127 9.10593H2.43525C2.03947 9.10593 1.71875 9.4267 1.71875 9.82243C1.71875 10.2182 2.03952 10.5389 2.43525 10.5389H5.73122C6.127 10.5389 6.44772 10.2182 6.44772 9.82243C6.44777 9.4267 6.127 9.10593 5.73127 9.10593Z" fill="currentColor"/>
    <path d="M7.37965 6.28759H1.26533C0.869597 6.28759 0.548828 6.60836 0.548828 7.00413C0.548828 7.39991 0.869597 7.72063 1.26533 7.72063H7.37965C7.77543 7.72063 8.09615 7.39987 8.09615 7.00413C8.09615 6.6084 7.77543 6.28759 7.37965 6.28759Z" fill="currentColor"/>
    <path d="M8.54957 3.46928H2.43525C2.03947 3.46928 1.71875 3.79005 1.71875 4.18578C1.71875 4.58155 2.03952 4.90228 2.43525 4.90228H8.54957C8.94535 4.90228 9.26607 4.58151 9.26607 4.18578C9.26612 3.79005 8.94535 3.46928 8.54957 3.46928Z" fill="currentColor"/>
  </symbol>
  <symbol id="nav-pay" viewBox="0 0 24 21">
    <path d="M22.8376 13.2553C22.4454 13.2553 22.127 13.5736 22.127 13.9658V18.9397H2.23165V10.4131H10.0477C10.4399 10.4131 10.7582 10.0948 10.7582 9.70255C10.7582 9.31033 10.4399 8.992 10.0477 8.992H2.23165V6.14981H10.0477C10.4399 6.14981 10.7582 5.83148 10.7582 5.43926C10.7582 5.04703 10.4399 4.72871 10.0477 4.72871H2.23165C1.4472 4.72871 0.810547 5.36536 0.810547 6.14981V18.9397C0.810547 19.7241 1.4472 20.3608 2.23165 20.3608H22.127C22.9115 20.3608 23.5481 19.7241 23.5481 18.9397V13.9658C23.5481 13.5736 23.2298 13.2553 22.8376 13.2553Z" fill="currentColor"/>
    <path d="M7.20509 13.2553H4.36289C3.97067 13.2553 3.65234 13.5736 3.65234 13.9658C3.65234 14.3581 3.97067 14.6764 4.36289 14.6764H7.20509C7.59731 14.6764 7.91564 14.3581 7.91564 13.9658C7.91564 13.5736 7.59731 13.2553 7.20509 13.2553Z" fill="currentColor"/>
    <path d="M23.1179 2.6539L18.144 0.522248C17.9636 0.44693 17.7632 0.44693 17.5827 0.522248L12.6089 2.6539C12.3488 2.76616 12.1797 3.02338 12.1797 3.3076V6.1498C12.1797 10.0592 13.6249 12.3444 17.5102 14.5826C17.6197 14.6451 17.7419 14.6764 17.8641 14.6764C17.9863 14.6764 18.1085 14.6451 18.2179 14.5826C22.1032 12.3501 23.5485 10.0649 23.5485 6.1498V3.3076C23.5485 3.02338 23.3794 2.76616 23.1179 2.6539ZM22.1274 6.1498C22.1274 9.43112 21.0417 11.2373 17.8641 13.1416C14.6865 11.2331 13.6008 9.42685 13.6008 6.1498V3.77656L17.8641 1.94903L22.1274 3.77656V6.1498Z" fill="currentColor"/>
    <path d="M20.4396 4.8836C20.1341 4.64201 19.6879 4.68891 19.4406 4.99445L17.2066 7.78833L16.3227 6.4667C16.1024 6.13985 15.6605 6.05316 15.3379 6.26917C15.0125 6.4866 14.9229 6.92856 15.1404 7.25399L16.5615 9.38564C16.6879 9.57465 16.8954 9.69118 17.1228 9.70255C17.1327 9.70255 17.1441 9.70255 17.1526 9.70255C17.3672 9.70255 17.5719 9.60591 17.7083 9.43538L20.5505 5.88263C20.7949 5.57568 20.7466 5.12945 20.4396 4.8836Z" fill="currentColor"/>
  </symbol>
  <symbol id="nav-waranty" viewBox="0 0 23 23">
    <path d="M19.0956 14.2237C20.0457 12.7808 20.5996 11.0549 20.5996 9.20167C20.5996 4.15236 16.4916 0.0444946 11.4422 0.0444946C6.39294 0.0444946 2.28508 4.15236 2.28508 9.20167C2.28508 11.0549 2.83898 12.7808 3.78892 14.2237L0.207031 19.4476L4.3057 18.6834L5.07003 22.7821L8.44791 17.8556C9.38675 18.1814 10.3941 18.3588 11.4422 18.3588C12.4905 18.3588 13.4979 18.1814 14.4366 17.8556L17.8146 22.7821L18.5788 18.6834L22.6775 19.4476L19.0956 14.2237ZM5.79428 19.356L5.37742 17.1202L3.14186 17.5373L4.65039 15.3371C5.37291 16.1361 6.23421 16.8071 7.1956 17.3126L5.79428 19.356ZM3.62516 9.20167C3.62516 4.89136 7.13194 1.38458 11.4422 1.38458C15.7527 1.38458 19.2595 4.89136 19.2595 9.20167C19.2595 13.5121 15.7527 17.0189 11.4422 17.0189C7.13194 17.0189 3.62516 13.5121 3.62516 9.20167ZM17.5071 17.1202L17.0902 19.356L15.6891 17.3126C16.6505 16.8071 17.5118 16.1361 18.2343 15.3371L19.7428 17.5371L17.5071 17.1202Z" fill="currentColor"/>
    <path d="M9.80994 11.2127L7.63111 9.03408L6.68359 9.9816L9.80994 13.1079L16.2012 6.71682L15.2537 5.7693L9.80994 11.2127Z" fill="currentColor"/>
  </symbol>
  <symbol id="nav-articles" viewBox="0 0 23 23">
    <path d="M21.5177 11.6634C21.4262 11.4763 21.4262 11.2616 21.5177 11.0744L22.3658 9.33959C22.8379 8.37364 22.4638 7.22233 21.5141 6.71842L19.8083 5.81335C19.6243 5.71574 19.4981 5.54201 19.4621 5.33689L19.1285 3.43488C18.9427 2.37589 17.9631 1.66428 16.8988 1.81487L14.9868 2.08532C14.7805 2.11446 14.5764 2.04811 14.4267 1.90329L13.0389 0.560707C12.2661 -0.18688 11.0555 -0.186924 10.2828 0.560707L8.89489 1.90342C8.74515 2.04829 8.54109 2.1145 8.33476 2.08546L6.4228 1.815C5.35809 1.66432 4.37886 2.37603 4.1931 3.43501L3.8595 5.33693C3.82348 5.5421 3.69731 5.71579 3.51333 5.81344L1.80756 6.71851C0.857825 7.22237 0.483721 8.37378 0.955881 9.33972L1.80388 11.0745C1.89536 11.2617 1.89536 11.4764 1.80388 11.6635L0.955837 13.3983C0.483677 14.3643 0.857781 15.5156 1.80752 16.0195L3.51328 16.9246C3.69731 17.0222 3.82348 17.1959 3.8595 17.401L4.1931 19.303C4.36221 20.2671 5.18885 20.9432 6.1389 20.9431C6.23247 20.9431 6.32741 20.9365 6.42285 20.923L8.3348 20.6526C8.541 20.6233 8.74519 20.6898 8.89494 20.8346L10.2828 22.1772C10.6692 22.551 11.1649 22.7379 11.6608 22.7378C12.1565 22.7378 12.6525 22.5509 13.0388 22.1772L14.4267 20.8346C14.5764 20.6898 14.7806 20.6236 14.9868 20.6526L16.8988 20.923C17.9636 21.0736 18.9427 20.362 19.1285 19.303L19.4621 17.4011C19.4982 17.1959 19.6243 17.0222 19.8083 16.9246L21.5141 16.0195C22.4638 15.5156 22.8379 14.3642 22.3658 13.3983L21.5177 11.6634ZM20.8994 14.861L19.1936 15.7661C18.6498 16.0547 18.2768 16.568 18.1705 17.1744L17.8368 19.0764C17.774 19.4347 17.4428 19.6753 17.0825 19.6245L15.1705 19.354C14.5608 19.2677 13.9574 19.4639 13.5149 19.892L12.127 21.2345C11.8656 21.4874 11.456 21.4874 11.1945 21.2345L9.80671 19.8919C9.43269 19.5301 8.94375 19.334 8.4333 19.334C8.33978 19.334 8.2455 19.3406 8.15108 19.354L6.23913 19.6244C5.87915 19.6753 5.54763 19.4346 5.48475 19.0763L5.1511 17.1743C5.04469 16.5679 4.67174 16.0545 4.12786 15.766L2.4221 14.861C2.10075 14.6905 1.97419 14.301 2.13393 13.9741L2.98197 12.2393C3.25233 11.6861 3.25233 11.0517 2.98197 10.4985L2.13393 8.76369C1.97419 8.43688 2.10075 8.04737 2.4221 7.87688L4.12786 6.97182C4.6717 6.6832 5.04469 6.16992 5.15105 5.56346L5.48466 3.6615C5.54754 3.30321 5.87875 3.06251 6.23904 3.1134L8.15099 3.38385C8.76051 3.47014 9.36408 3.27398 9.80662 2.84592L11.1945 1.50334C11.4559 1.25047 11.8655 1.25047 12.127 1.50334L13.5148 2.84592C13.9573 3.27403 14.5608 3.47014 15.1704 3.38385L17.0824 3.1134C17.4424 3.06246 17.7739 3.30321 17.8368 3.6615L18.1704 5.56351C18.2768 6.16996 18.6497 6.68329 19.1936 6.97182L20.8994 7.87688C21.2207 8.04737 21.3473 8.43688 21.1875 8.76369L20.3395 10.4985C20.0691 11.0516 20.0691 11.6861 20.3395 12.2393L21.1875 13.9741C21.3473 14.301 21.2208 14.6905 20.8994 14.861Z" fill="currentColor"/>
    <path d="M9.03709 5.46758C7.71138 5.46758 6.63281 6.54615 6.63281 7.87186C6.63281 9.19757 7.71138 10.2761 9.03709 10.2761C10.3628 10.2761 11.4414 9.19757 11.4414 7.87186C11.4414 6.54615 10.3628 5.46758 9.03709 5.46758ZM9.03709 8.96469C8.4345 8.96469 7.94426 8.47445 7.94426 7.87182C7.94426 7.26923 8.4345 6.77899 9.03709 6.77899C9.63968 6.77899 10.13 7.26923 10.13 7.87182C10.1299 8.47445 9.63968 8.96469 9.03709 8.96469Z" fill="currentColor"/>
    <path d="M16.452 6.57781C16.196 6.32175 15.7807 6.32175 15.5247 6.57781L6.86978 15.2327C6.61372 15.4888 6.61372 15.904 6.86978 16.1601C6.99781 16.2881 7.16564 16.3521 7.33342 16.3521C7.50119 16.3521 7.66906 16.2881 7.79705 16.1601L16.4519 7.50517C16.7081 7.24906 16.7081 6.83392 16.452 6.57781Z" fill="currentColor"/>
    <path d="M14.2832 12.4618C12.9575 12.4618 11.8789 13.5404 11.8789 14.8661C11.8789 16.1918 12.9575 17.2703 14.2832 17.2703C15.6089 17.2703 16.6875 16.1918 16.6875 14.8661C16.6875 13.5404 15.6089 12.4618 14.2832 12.4618ZM14.2832 15.9589C13.6806 15.9589 13.1903 15.4687 13.1903 14.8661C13.1903 14.2635 13.6805 13.7732 14.2832 13.7732C14.8858 13.7732 15.376 14.2635 15.376 14.8661C15.376 15.4687 14.8858 15.9589 14.2832 15.9589Z" fill="currentColor"/>
  </symbol>
  <symbol id="nav-reviews" viewBox="0 0 22 21">
    <path d="M4.92406 21C4.68303 21 4.44367 20.9251 4.2394 20.778C3.85888 20.5033 3.68113 20.0311 3.78469 19.5755L5.20001 13.3656L0.400147 9.17285C0.0473249 8.86606 -0.0874593 8.38021 0.057396 7.93565C0.202251 7.49193 0.596365 7.17778 1.06299 7.13481L7.41379 6.56051L9.92467 0.707713C10.1098 0.277702 10.5315 0 10.9999 0C11.4684 0 11.89 0.277702 12.0752 0.70671L14.5861 6.56051L20.9359 7.13481C21.4035 7.17678 21.7976 7.49193 21.9425 7.93565C22.0873 8.37937 21.9534 8.86606 21.6005 9.17285L16.8007 13.3648L18.216 19.5745C18.3197 20.0311 18.1418 20.5033 17.7615 20.7771C17.382 21.051 16.8759 21.0721 16.4762 20.8328L10.9999 17.5731L5.52363 20.8347C5.33849 20.9442 5.1322 21 4.92406 21ZM10.9999 16.1689C11.2081 16.1689 11.4142 16.2246 11.5995 16.3341L16.7678 19.413L15.432 13.5519C15.3367 13.1347 15.4789 12.6992 15.8025 12.417L20.3346 8.45795L14.3385 7.91559C13.9068 7.8763 13.5355 7.60595 13.3668 7.20971L10.9999 1.68644L8.63021 7.21055C8.46336 7.60411 8.09208 7.87446 7.66137 7.91375L1.6644 8.45611L6.19637 12.4152C6.52099 12.6982 6.663 13.1329 6.56682 13.551L5.23207 19.412L10.4004 16.3341C10.5855 16.2246 10.7918 16.1689 10.9999 16.1689ZM7.36528 6.6737C7.36528 6.6737 7.36528 6.67471 7.36428 6.67554L7.36528 6.6737ZM14.6327 6.67103L14.6337 6.67287C14.6337 6.67186 14.6337 6.67186 14.6327 6.67103Z" fill="currentColor"/>
  </symbol>
  <symbol id="nav-services" viewBox="0 0 19 23">
    <path d="M17.422 10.4623V7.02706C17.422 3.15223 14.3877 0 10.6583 0H8.3417C4.61209 0 1.57801 3.15223 1.57801 7.02706V10.4623C0.646541 10.918 0 11.9023 0 13.0409V14.4891C0 16.06 1.23008 17.338 2.74206 17.338H4.6707C5.14243 17.338 5.52634 16.9391 5.52634 16.449V11.0809C5.52634 10.7322 5.3316 10.4307 5.04971 10.2851V7.02706C5.04971 5.14106 6.52638 3.60688 8.3417 3.60688H10.6583C12.4734 3.60688 13.9503 5.14106 13.9503 7.02706V10.2851C13.6684 10.4307 13.4737 10.7322 13.4737 11.0809V16.449C13.4737 16.9391 13.8574 17.338 14.3291 17.338H15.09V19.1257C15.09 19.9474 14.4465 20.6162 13.6554 20.6162H11.8904V20.2924C11.8904 19.9132 11.5945 19.6058 11.2293 19.6058H8.77847C8.07399 19.6058 7.50076 20.2014 7.50076 20.9333V21.6724C7.50076 22.4044 8.07399 23 8.77847 23H11.2293C11.5945 23 11.8904 22.6926 11.8904 22.3132V21.9896H13.6554C15.1753 21.9896 16.4118 20.7048 16.4118 19.1257V17.3332C17.8525 17.2499 19 16.0063 19 14.4891V13.0409C18.9998 11.9023 18.3535 10.918 17.422 10.4623ZM10.5684 21.6266H8.82255V20.9791H10.5684V21.6266ZM4.20438 15.9647H2.74206C1.95905 15.9647 1.32179 15.3026 1.32179 14.4891V13.0409C1.32179 12.2273 1.95905 11.5654 2.74206 11.5654H4.20438V15.9647ZM10.6583 2.23362H8.3417C5.79759 2.23362 3.72791 4.38389 3.72791 7.02706V10.1921H2.89981V7.02706C2.89981 3.90958 5.34106 1.37327 8.3417 1.37327H10.6583C13.6589 1.37327 16.1002 3.90958 16.1002 7.02706V10.1921H15.2721V7.02706C15.2721 4.38389 13.2024 2.23362 10.6583 2.23362ZM17.678 14.4891C17.678 15.3026 17.041 15.9645 16.2579 15.9645H14.7955V11.5654H16.2579C17.041 11.5654 17.678 12.2273 17.678 13.0408V14.4891Z" fill="currentColor"/>
  </symbol>
  <symbol id="nav-work" viewBox="0 0 23 23">
    <path d="M12.3116 7.00498H11.7143L10.8313 5.14324C10.6826 4.82969 10.3666 4.62978 10.0195 4.62978H8.16244C7.81537 4.62978 7.49939 4.82964 7.35065 5.14324L6.46767 7.00498H5.87039C5.37418 7.00498 4.97195 7.40721 4.97195 7.90342V12.6539C4.97195 13.1501 5.37418 13.5523 5.87039 13.5523H12.3116C12.8078 13.5523 13.21 13.1501 13.21 12.6539V7.90342C13.21 7.40721 12.8078 7.00498 12.3116 7.00498ZM8.73074 6.42666H9.45133L9.72563 7.00498H8.45649L8.73074 6.42666ZM11.4132 11.7554H6.76882V8.80182H11.4132V11.7554ZM22.7368 19.0522L19.3228 15.6381C18.9719 15.2872 18.403 15.2872 18.0522 15.6381L17.4804 16.2099L16.1202 14.8496C17.408 13.2806 18.182 11.2745 18.182 9.09102C18.182 4.07819 14.1038 0 9.09101 0C4.07823 0 0 4.07819 0 9.09102C0 14.1039 4.07819 18.182 9.09101 18.182C11.2745 18.182 13.2806 17.408 14.8496 16.1202L16.2099 17.4805L15.6381 18.0522C15.2872 18.4031 15.2872 18.972 15.6381 19.3228L19.0522 22.7369C19.403 23.0877 19.9719 23.0877 20.3227 22.7369L22.7368 20.3228C23.0877 19.9719 23.0877 19.403 22.7368 19.0522ZM1.79687 9.09102C1.79687 5.06899 5.06898 1.79688 9.09101 1.79688C13.113 1.79688 16.3852 5.06899 16.3852 9.09102C16.3852 13.1131 13.113 16.3852 9.09101 16.3852C5.06903 16.3852 1.79687 13.113 1.79687 9.09102ZM19.6875 20.831L17.544 18.6875L18.6875 17.544L20.831 19.6875L19.6875 20.831Z" fill="currentColor"/>
  </symbol>
  <symbol id="nav-contacts" viewBox="0 0 22 23">
    <path d="M18.8377 3.28046C16.9457 1.3885 14.4301 0.346635 11.7546 0.346741C11.3162 0.346741 10.9609 0.702106 10.9609 1.14044C10.9609 1.57877 11.3163 1.93414 11.7546 1.93414C14.0062 1.93403 16.123 2.81081 17.7152 4.40297C19.3075 5.99512 20.1842 8.11208 20.1841 10.3637C20.1841 10.8021 20.5394 11.1574 20.9778 11.1574C21.4162 11.1574 21.7715 10.8021 21.7715 10.3639C21.7716 7.68803 20.7298 5.17243 18.8377 3.28046Z" fill="currentColor"/>
    <path d="M15.5728 10.3639C15.5728 10.8022 15.9281 11.1576 16.3666 11.1574C16.8049 11.1574 17.1601 10.8021 17.1601 10.3638C17.1599 7.38368 14.735 4.95887 11.7547 4.95845C11.7546 4.95845 11.7547 4.95845 11.7546 4.95845C11.3163 4.95845 10.961 5.31371 10.9609 5.75204C10.9609 6.19038 11.3162 6.54574 11.7545 6.54585C13.8597 6.54617 15.5725 8.25886 15.5728 10.3639Z" fill="currentColor"/>
    <path d="M13.8158 14.4107C12.6059 14.348 11.9896 15.2477 11.694 15.6799C11.4465 16.0418 11.5392 16.5357 11.901 16.7832C12.2629 17.0307 12.7568 16.938 13.0043 16.5762C13.3535 16.0656 13.5117 15.9853 13.7263 15.9954C14.4133 16.0762 17.1187 18.0587 17.3896 18.6786C17.4576 18.8612 17.455 19.0401 17.3821 19.2578C17.0981 20.1008 16.6279 20.6933 16.0221 20.971C15.4466 21.2348 14.7411 21.2109 13.9822 20.9021C11.1485 19.7471 8.6728 18.1352 6.624 16.1112C6.62315 16.1103 6.6223 16.1096 6.62156 16.1088C4.60176 14.062 2.99288 11.5894 1.83979 8.76006C1.53089 8.00054 1.50697 7.29489 1.77079 6.71951C2.04848 6.11376 2.6409 5.64357 3.48317 5.35985C3.7016 5.28662 3.88023 5.28429 4.06109 5.35159C4.68325 5.62346 6.66569 8.32881 6.7457 9.00801C6.75713 9.23067 6.67617 9.38877 6.16598 9.73736C5.80405 9.98457 5.71103 10.4785 5.95835 10.8404C6.20556 11.2023 6.69935 11.2952 7.06138 11.048C7.49379 10.7528 8.39331 10.1381 8.33087 8.92419C8.26209 7.65618 5.79548 4.2982 4.61689 3.86484C4.09273 3.66948 3.54138 3.6661 2.97753 3.85531C1.70889 4.28254 0.79264 5.04427 0.32785 6.05809C-0.12297 7.04164 -0.108684 8.18277 0.369652 9.35872C1.60369 12.3866 3.33025 15.036 5.50128 17.2335C5.50658 17.2389 5.51197 17.2442 5.51748 17.2494C7.71338 19.4164 10.3597 21.1397 13.3836 22.3723C13.9891 22.6186 14.5854 22.7419 15.1557 22.7419C15.6927 22.7419 16.2068 22.6326 16.6837 22.414C17.6976 21.9493 18.4592 21.0332 18.8867 19.7637C19.0755 19.2009 19.0725 18.6498 18.8786 18.128C18.4438 16.9463 15.0858 14.4797 13.8158 14.4107Z" fill="currentColor"/>
  </symbol>
  <symbol id="header-burger" viewBox="0 0 21 12">
    <rect width="21" height="2" fill="currentColor"/>
    <rect y="5" width="21" height="2" fill="currentColor"/>
    <rect y="10" width="21" height="2" fill="currentColor"/>
  </symbol>
  <symbol id="cart" viewBox="0 0 20 20">
    <path d="M6 16C4.9 16 4 16.9 4 18C4 19.1 4.9 20 6 20C7.1 20 8 19.1 8 18C8 16.9 7.1 16 6 16ZM0 0V2H2L5.6 9.6L4.2 12C4.1 12.3 4 12.7 4 13C4 14.1 4.9 15 6 15H18V13H6.4C6.3 13 6.2 12.9 6.2 12.8V12.7L7.1 11H14.5C15.3 11 15.9 10.6 16.2 9.99996L19.8 3.5C20 3.3 20 3.2 20 3C20 2.4 19.6 2 19 2H4.2L3.3 0H0ZM16 16C14.9 16 14 16.9 14 18C14 19.1 14.9 20 16 20C17.1 20 18 19.1 18 18C18 16.9 17.1 16 16 16Z" fill="currentColor"/>
  </symbol>
  <symbol id="header-search" viewBox="0 0 19 19">
    <path d="M12.6885 2.17382C9.78983 -0.724607 5.07211 -0.724607 2.17349 2.17382C-0.724498 5.07288 -0.724498 9.78965 2.17349 12.6887C4.75479 15.2692 8.77503 15.5457 11.6718 13.5307C11.7327 13.8191 11.8722 14.0943 12.0965 14.3186L16.3179 18.5396C16.933 19.1535 17.9271 19.1535 18.5391 18.5396C19.1536 17.9251 19.1536 16.9311 18.5391 16.3185L14.3178 12.0962C14.0947 11.8738 13.8189 11.7337 13.5305 11.6727C15.5469 8.77555 15.2704 4.7562 12.6885 2.17382ZM11.3557 11.356C9.19163 13.52 5.66968 13.52 3.50624 11.356C1.34343 9.19212 1.34343 5.67103 3.50624 3.50711C5.66968 1.34381 9.19163 1.34381 11.3557 3.50711C13.5198 5.67103 13.5198 9.19212 11.3557 11.356Z" fill="currentColor"/>
  </symbol>
  <symbol id="header-search-close" viewBox="0 0 18 18">
    <path d="M11.2112 9.03892L17.5345 2.67685C18.1552 2.05616 18.1552 1.08633 17.5345 0.465639C16.9138 -0.15505 15.944 -0.15505 15.3233 0.465639L9.03879 6.82771L2.67672 0.504432C2.05603 -0.116257 1.08621 -0.116257 0.465517 0.504432C-0.155172 1.12512 -0.155172 2.09495 0.465517 2.71564L6.78879 9.03892L0.50431 15.3622C-0.116379 15.9829 -0.116379 16.9527 0.50431 17.5734C0.814655 17.8449 1.20259 18.0001 1.59052 18.0001C1.97845 18.0001 2.36638 17.8449 2.67672 17.5346L9 11.2113L15.3233 17.5346C15.6336 17.8449 16.0216 18.0001 16.4095 18.0001C16.7974 18.0001 17.1853 17.8449 17.4957 17.5346C18.1164 16.9139 18.1164 15.9441 17.4957 15.3234L11.2112 9.03892Z" fill="currentColor"/>
  </symbol>
  <symbol id="header-auth" viewBox="0 0 17 22">
    <path d="M8.36673 10.7594C10.8128 10.7594 12.7958 8.35089 12.7958 5.37976C12.7958 2.40856 12.1448 0 8.36673 0C4.5887 0 3.9375 2.40856 3.9375 5.37976C3.9375 8.35089 5.92058 10.7594 8.36673 10.7594Z" fill="currentColor"/>
    <path d="M16.7324 19.1151C16.7348 19.0655 16.7332 18.771 16.7324 19.1151V19.1151Z" fill="currentColor"/>
    <path d="M16.7217 18.7564C16.6397 13.5806 15.9637 12.1058 10.791 11.1722C10.791 11.1722 10.0629 12.1001 8.36572 12.1001C6.66858 12.1001 5.94031 11.1722 5.94031 11.1722C0.824057 12.0956 0.106983 13.5486 0.0126971 18.5883C0.00496569 18.9998 0.00138286 19.0214 0 18.9736C0.000314286 19.0631 0.000691289 19.2287 0.000691289 19.5174C0.000691289 19.5174 1.23219 22 8.36572 22C15.4991 22 16.7308 19.5174 16.7308 19.5174C16.7308 19.3319 16.7309 19.2029 16.7311 19.1152C16.7297 19.1447 16.7269 19.0875 16.7217 18.7564Z" fill="currentColor"/>
  </symbol>
  <symbol id="popup-close" viewBox="0 0 18 18">
    <path d="M11.2112 9.03892L17.5345 2.67685C18.1552 2.05616 18.1552 1.08633 17.5345 0.465639C16.9138 -0.15505 15.944 -0.15505 15.3233 0.465639L9.03879 6.82771L2.67672 0.504432C2.05603 -0.116257 1.08621 -0.116257 0.465517 0.504432C-0.155172 1.12512 -0.155172 2.09495 0.465517 2.71564L6.78879 9.03892L0.50431 15.3622C-0.116379 15.9829 -0.116379 16.9527 0.50431 17.5734C0.814655 17.8449 1.20259 18.0001 1.59052 18.0001C1.97845 18.0001 2.36638 17.8449 2.67672 17.5346L9 11.2113L15.3233 17.5346C15.6336 17.8449 16.0216 18.0001 16.4095 18.0001C16.7974 18.0001 17.1853 17.8449 17.4957 17.5346C18.1164 16.9139 18.1164 15.9441 17.4957 15.3234L11.2112 9.03892Z" fill="currentColor"/>
  </symbol>
  <symbol id="trash" viewBox="0 0 14 17">
    <path d="M9.64635 6.26022C9.43606 6.26022 9.26562 6.43066 9.26562 6.64095V13.8367C9.26562 14.0468 9.43606 14.2174 9.64635 14.2174C9.85664 14.2174 10.0271 14.0468 10.0271 13.8367V6.64095C10.0271 6.43066 9.85664 6.26022 9.64635 6.26022Z" fill="currentColor"/>
    <path d="M5.15416 6.26022C4.94387 6.26022 4.77344 6.43066 4.77344 6.64095V13.8367C4.77344 14.0468 4.94387 14.2174 5.15416 14.2174C5.36446 14.2174 5.53489 14.0468 5.53489 13.8367V6.64095C5.53489 6.43066 5.36446 6.26022 5.15416 6.26022Z" fill="currentColor"/>
    <path d="M1.8782 5.21011V14.5904C1.8782 15.1448 2.0815 15.6655 2.43664 16.0391C2.79015 16.4137 3.28212 16.6264 3.79699 16.6273H11.0004C11.5155 16.6264 12.0074 16.4137 12.3608 16.0391C12.7159 15.6655 12.9192 15.1448 12.9192 14.5904V5.21011C13.6252 5.02272 14.0827 4.34069 13.9882 3.61627C13.8936 2.892 13.2766 2.35021 12.5461 2.35006H10.5968V1.87415C10.599 1.47395 10.4408 1.08965 10.1575 0.806934C9.87417 0.524364 9.48928 0.367017 9.08907 0.370289H5.70835C5.30814 0.367017 4.92325 0.524364 4.63994 0.806934C4.35663 1.08965 4.19839 1.47395 4.20062 1.87415V2.35006H2.25134C1.52082 2.35021 0.903778 2.892 0.809192 3.61627C0.714754 4.34069 1.17222 5.02272 1.8782 5.21011ZM11.0004 15.8658H3.79699C3.14604 15.8658 2.63965 15.3066 2.63965 14.5904V5.24357H12.1578V14.5904C12.1578 15.3066 11.6514 15.8658 11.0004 15.8658ZM4.96207 1.87415C4.95954 1.67591 5.03747 1.4851 5.17816 1.34515C5.3187 1.20521 5.50996 1.12832 5.70835 1.13174H9.08907C9.28747 1.12832 9.47872 1.20521 9.61926 1.34515C9.75995 1.48495 9.83788 1.67591 9.83535 1.87415V2.35006H4.96207V1.87415ZM2.25134 3.11151H12.5461C12.9246 3.11151 13.2314 3.41832 13.2314 3.79682C13.2314 4.17531 12.9246 4.48212 12.5461 4.48212H2.25134C1.87284 4.48212 1.56603 4.17531 1.56603 3.79682C1.56603 3.41832 1.87284 3.11151 2.25134 3.11151Z" fill="currentColor"/>
    <path d="M7.40026 6.26022C7.18997 6.26022 7.01953 6.43066 7.01953 6.64095V13.8367C7.01953 14.0468 7.18997 14.2174 7.40026 14.2174C7.61055 14.2174 7.78098 14.0468 7.78098 13.8367V6.64095C7.78098 6.43066 7.61055 6.26022 7.40026 6.26022Z" fill="currentColor"/>
  </symbol>
  <symbol id="bread-crump-arrow" viewBox="0 0 6 8">
    <path d="M0.333985 7.05666L3.63181 4L0.333984 0.943344L1.35172 -4.44868e-08L5.66732 4L1.35172 8L0.333985 7.05666Z" fill="currentColor"/>
  </symbol>
  <symbol id="grid-view" viewBox="0 0 22 22">
    <path d="M9.16667 0H0V9.16667H9.16667V0Z" fill="currentColor"/>
    <path d="M22.0007 0H12.834V9.16667H22.0007V0Z" fill="currentColor"/>
    <path d="M9.16667 12.8335H0V22.0002H9.16667V12.8335Z" fill="currentColor"/>
    <path d="M22.0007 12.8335H12.834V22.0002H22.0007V12.8335Z" fill="currentColor"/>
  </symbol>
  <symbol id="string-view" viewBox="0 0 22 16">
    <path d="M21.0297 0H0.970703V2.8417H21.0297V0Z" fill="currentColor"/>
    <path d="M21.0297 6.12939H0.970703V8.97109H21.0297V6.12939Z" fill="currentColor"/>
    <path d="M21.0297 12.2583H0.970703V15.1H21.0297V12.2583Z" fill="currentColor"/>
  </symbol>
</svg>



