<svg width="95" height="26" viewBox="0 0 95 26" fill="none" xmlns="http://www.w3.org/2000/svg">
<path d="M0.980559 1.24765C1.38798 1.18497 1.79539 1.05961 2.20281 1.05961C9.97507 1.05961 17.7473 1.05961 25.5196 1.05961C25.833 1.05961 26.115 1.12229 26.9299 1.21631C22.1349 7.92302 17.0579 14.0656 12.1689 20.741C39.7165 20.741 67.0134 20.741 94.4671 20.741C94.5611 22.402 94.6238 23.9063 94.6864 25.3793C63.4407 25.3793 32.2263 25.3793 0.980559 25.3793C0.980559 25.0659 0.980559 24.7525 0.980559 24.4391C4.45927 19.9575 7.90665 15.4759 11.3854 10.9943C12.733 9.23929 14.0492 7.48426 15.6162 5.44718C14.6447 5.3845 14.1119 5.32182 13.5478 5.32182C10.0064 5.32182 6.46502 5.32182 2.92362 5.29048C2.26549 5.29048 1.60735 5.10244 0.949219 5.00842C0.980559 3.75483 0.980559 2.50124 0.980559 1.24765Z" fill="#00B341"/>
<path d="M94.9986 10.963C94.5599 12.2166 94.2778 13.5955 93.6197 14.7551C92.1154 17.419 89.5455 18.7352 86.6936 19.4247C82.212 20.5216 78.0438 19.7381 74.5964 16.5728C70.5849 12.906 70.9924 6.82612 75.3173 3.47277C77.1036 2.09382 79.078 1.27898 81.3031 0.996927C81.7106 0.934247 82.0553 0.746209 82.4627 0.62085C82.9955 0.62085 83.4969 0.62085 84.0297 0.62085C84.4685 0.746209 84.9072 0.871568 85.346 1.02827C87.1323 1.6864 88.9814 2.1565 90.6424 3.06535C93.2436 4.4443 94.3718 6.95148 94.9986 9.70938C94.9986 10.1168 94.9986 10.5556 94.9986 10.963ZM88.4486 10.3989C88.3546 9.67804 88.3546 9.01991 88.1666 8.42445C87.5084 6.26201 86.3489 4.50698 83.9357 4.09956C82.0866 3.78617 80.6764 4.69502 79.6735 6.13665C78.3259 8.07971 77.9811 10.2422 78.6706 12.53C79.4228 14.9431 81.4285 16.6981 83.4029 16.6668C85.346 16.6355 87.3517 14.9118 88.0412 12.5926C88.2606 11.8405 88.3233 11.057 88.4486 10.3989Z" fill="#00B341"/>
<path d="M34.6065 4.53832C34.4498 4.88306 34.3871 4.97708 34.3558 5.0711C33.7604 8.51847 34.0424 8.86321 37.4584 8.86321C39.8716 8.86321 42.2534 8.92589 44.6666 8.83187C46.0455 8.76919 45.9829 9.58403 45.9829 10.5242C46.0142 11.5271 45.9202 12.2166 44.6039 12.1539C41.7206 12.0599 38.8687 12.1852 35.9855 12.0912C34.7319 12.0599 34.1991 12.3733 34.2304 13.7209C34.2618 16.1967 34.1991 16.2281 36.7063 16.2281C40.4671 16.2281 44.2278 16.2281 48.114 16.2281C48.114 17.3249 48.114 18.3278 48.114 19.4874C47.6752 19.5187 47.2365 19.6127 46.7664 19.6127C41.0312 19.6127 35.2647 19.5814 29.5295 19.6441C28.2132 19.6754 27.9625 19.174 27.9625 18.0144C28.0252 12.9374 28.0252 7.89168 27.9625 2.81464C27.9312 1.56105 28.3699 1.21631 29.5608 1.21631C34.8886 1.27899 40.2163 1.24765 45.5441 1.24765C48.49 1.24765 48.6154 1.40435 47.9573 4.53832C43.5697 4.53832 39.0881 4.53832 34.6065 4.53832Z" fill="#00B341"/>
<path d="M63.5341 4.56966C63.5341 7.2022 63.5654 9.6467 63.5341 12.0912C63.5027 14.1596 63.44 16.2594 63.4087 18.3278C63.4087 19.2367 63.0953 19.6754 62.1238 19.6127C60.9329 19.5501 59.7106 19.5187 58.5197 19.6127C57.3601 19.7068 57.1094 19.2053 57.1407 18.1398C57.1721 14.1283 57.1094 10.1168 57.1721 6.10531C57.2034 4.85172 56.796 4.4443 55.5738 4.53832C53.9754 4.63234 52.3458 4.50698 50.7161 4.56966C49.5252 4.63234 49.4625 3.91153 49.4938 3.06535C49.5252 2.18784 49.3058 1.21631 50.7161 1.21631C57.1407 1.24765 63.5341 1.24765 69.9587 1.21631C71.463 1.21631 71.0243 2.28186 71.0869 3.09669C71.1496 3.94287 71.0869 4.63234 69.896 4.56966C67.8903 4.53832 65.8532 4.56966 63.5341 4.56966Z" fill="#00B341"/>
</svg>
